<?xml version="1.0" encoding="UTF-8"?>
<svg version="1.1" xmlns="http://www.w3.org/2000/svg" width="192" height="192">
<path d="M0 0 C63.36 0 126.72 0 192 0 C192 63.36 192 126.72 192 192 C128.64 192 65.28 192 0 192 C0 128.64 0 65.28 0 0 Z " fill="#7670B5" transform="translate(0,0)"/>
<path d="M0 0 C0 0.66 0 1.32 0 2 C-0.95253662 2.04898438 -1.90507324 2.09796875 -2.88647461 2.1484375 C-6.46213077 2.34227245 -10.03311334 2.58525795 -13.60473633 2.84228516 C-15.14296461 2.94628259 -16.68212525 3.03740236 -18.22192383 3.11474609 C-27.28643783 3.57959297 -33.98194624 4.216264 -40.43579102 11.3203125 C-40.95197998 11.87460938 -41.46816895 12.42890625 -42 13 C-42.66 13 -43.32 13 -44 13 C-47.28729366 20.97844482 -47.4845932 28.24581801 -47.4375 36.8125 C-47.45748047 38.12154297 -47.47746094 39.43058594 -47.49804688 40.77929688 C-47.49740234 42.03419922 -47.49675781 43.28910156 -47.49609375 44.58203125 C-47.49794678 45.71874268 -47.4997998 46.8554541 -47.50170898 48.02661133 C-46.8931356 51.63333411 -45.91046051 52.84211413 -43 55 C-42.01 55 -41.02 55 -40 55 C-40 55.66 -40 56.32 -40 57 C-39.01 56.67 -38.02 56.34 -37 56 C-37 55.34 -37 54.68 -37 54 C-36.01 54 -35.02 54 -34 54 C-34.495 53.5875 -34.99 53.175 -35.5 52.75 C-37 51 -37 51 -37 47 C-36.01 46.67 -35.02 46.34 -34 46 C-34 42.04 -34 38.08 -34 34 C-35.485 33.505 -35.485 33.505 -37 33 C-37.33 31.35 -37.66 29.7 -38 28 C-36.68 28 -35.36 28 -34 28 C-33.67 26.68 -33.34 25.36 -33 24 C-30 25 -30 25 -29 27 C-28.505 25.515 -28.505 25.515 -28 24 C-27.01 24 -26.02 24 -25 24 C-25 24.66 -25 25.32 -25 26 C-23.02 25.34 -21.04 24.68 -19 24 C-18.401875 24.804375 -17.80375 25.60875 -17.1875 26.4375 C-15.19052724 29.22327984 -15.19052724 29.22327984 -12 30 C-11.505 31.485 -11.505 31.485 -11 33 C-10.01 30.525 -10.01 30.525 -9 28 C-4.35677486 32.49344368 -4.23817524 36.86698764 -4 43 C-3.2575 42.7525 -2.515 42.505 -1.75 42.25 C-0.8425 42.1675 0.065 42.085 1 42 C2.33333333 43.33333333 3.66666667 44.66666667 5 46 C7.70705512 45.85974801 7.70705512 45.85974801 10 45 C10.37311779 49.35304083 9.24707038 51.34851063 7 55 C7 56.32 7 57.64 7 59 C7.495 58.01 7.495 58.01 8 57 C8.66 57 9.32 57 10 57 C10.33 56.01 10.66 55.02 11 54 C11.99 53.67 12.98 53.34 14 53 C14 53.66 14 54.32 14 55 C14.54366211 54.67854004 15.08732422 54.35708008 15.64746094 54.02587891 C18.44042512 52.80794247 20.59930528 52.6830009 23.640625 52.5859375 C25.24550781 52.52792969 25.24550781 52.52792969 26.8828125 52.46875 C27.99398437 52.4378125 29.10515625 52.406875 30.25 52.375 C31.93996094 52.31699219 31.93996094 52.31699219 33.6640625 52.2578125 C36.44254548 52.16362664 39.22102334 52.07800414 42 52 C42.33 52.99 42.66 53.98 43 55 C42.41508789 55.01981934 41.83017578 55.03963867 41.22753906 55.06005859 C38.56791975 55.15553481 35.90906162 55.26512142 33.25 55.375 C32.32960937 55.4059375 31.40921875 55.436875 30.4609375 55.46875 C29.57148438 55.50742188 28.68203125 55.54609375 27.765625 55.5859375 C26.94868164 55.6173584 26.13173828 55.6487793 25.29003906 55.68115234 C21.26239238 56.2419313 19.38975227 57.54528902 16.75 60.625 C16.1725 61.40875 15.595 62.1925 15 63 C15.33 63 15.66 63 16 63 C16.99 63 17.98 63 19 63 C19 63.66 19 64.32 19 65 C13.25 68 13.25 68 11 68 C10.34 70.64 9.68 73.28 9 76 C10.65 75.67 12.3 75.34 14 75 C15.04449911 78.13349732 14.93423645 78.98968256 14 82 C19.65146223 83.17122859 25.27601207 84.25339288 31 85 C31 83.68 31 82.36 31 81 C31.66 81 32.32 81 33 81 C33 82.65 33 84.3 33 86 C39.27 86 45.54 86 52 86 C52 84.68 52 83.36 52 82 C52.66 82 53.32 82 54 82 C54 83.65 54 85.3 54 87 C55.80984375 86.98259766 55.80984375 86.98259766 57.65625 86.96484375 C59.27083177 86.95545665 60.88541524 86.94635744 62.5 86.9375 C63.29148438 86.92912109 64.08296875 86.92074219 64.8984375 86.91210938 C65.68476563 86.90888672 66.47109375 86.90566406 67.28125 86.90234375 C67.99345703 86.89710693 68.70566406 86.89187012 69.43945312 86.88647461 C72.97567616 87.04325795 76.48763705 87.56095463 80 88 C80 101.86 80 115.72 80 130 C16.64 130 -46.72 130 -112 130 C-112 107.56 -112 85.12 -112 62 C-111.01 62.33 -110.02 62.66 -109 63 C-109 61.68 -109 60.36 -109 59 C-108.34 59 -107.68 59 -107 59 C-107.495 61.475 -107.495 61.475 -108 64 C-107.236875 63.835 -106.47375 63.67 -105.6875 63.5 C-103 63 -103 63 -100 63 C-100 61.68 -100 60.36 -100 59 C-99.360625 58.71125 -98.72125 58.4225 -98.0625 58.125 C-95.84793921 57.17176549 -95.84793921 57.17176549 -95 55 C-92.5625 55.375 -92.5625 55.375 -90 56 C-89.67 56.66 -89.34 57.32 -89 58 C-87.515 57.505 -87.515 57.505 -86 57 C-86 57.66 -86 58.32 -86 59 C-85.01 59 -84.02 59 -83 59 C-82.67 61.31 -82.34 63.62 -82 66 C-81.154375 65.814375 -80.30875 65.62875 -79.4375 65.4375 C-75.7226718 64.96470368 -72.67025727 65.33935369 -69 66 C-68.505 64.02 -68.505 64.02 -68 62 C-67.01 62 -66.02 62 -65 62 C-65.66 60.02 -66.32 58.04 -67 56 C-66.34 56 -65.68 56 -65 56 C-65 54.35 -65 52.7 -65 51 C-61.125 51.875 -61.125 51.875 -60 53 C-59.67 52.01 -59.34 51.02 -59 50 C-58.34 50 -57.68 50 -57 50 C-57.495 48.02 -57.495 48.02 -58 46 C-55.69 46 -53.38 46 -51 46 C-50.96036133 45.1529248 -50.92072266 44.30584961 -50.87988281 43.43310547 C-50.72297184 40.26757832 -50.54957667 37.10349221 -50.36523438 33.93945312 C-50.28903058 32.57424269 -50.21926046 31.20865639 -50.15625 29.84277344 C-50.06413155 27.87086294 -49.94635604 25.90020475 -49.828125 23.9296875 C-49.7652832 22.74616699 -49.70244141 21.56264648 -49.63769531 20.34326172 C-48.62622737 15.04041255 -45.46132131 11.17754776 -41.8125 7.3125 C-41.30332031 6.75175781 -40.79414062 6.19101563 -40.26953125 5.61328125 C-34.06762162 1.20469488 -26.39386417 0.40976019 -19 -0.25 C-18.16210938 -0.34023438 -17.32421875 -0.43046875 -16.4609375 -0.5234375 C-10.79261456 -1.06745611 -5.63856387 -0.79576506 0 0 Z " fill="#09090C" transform="translate(112,62)"/>
<path d="M0 0 C0 21.78 0 43.56 0 66 C-12.87 65.505 -12.87 65.505 -26 65 C-26 63.35 -26 61.7 -26 60 C-26.66 60 -27.32 60 -28 60 C-28 61.32 -28 62.64 -28 64 C-34.27 64 -40.54 64 -47 64 C-47 62.35 -47 60.7 -47 59 C-47.66 59 -48.32 59 -49 59 C-49 60.32 -49 61.64 -49 63 C-51.0839403 62.88556397 -53.16716493 62.75804453 -55.25 62.625 C-56.41015625 62.55539063 -57.5703125 62.48578125 -58.765625 62.4140625 C-61.70694334 62.03751692 -63.49949011 61.5225877 -66 60 C-66 57.69 -66 55.38 -66 53 C-68.475 53.495 -68.475 53.495 -71 54 C-71.3125 51.8125 -71.3125 51.8125 -71 49 C-68.5742702 45.95051111 -66.95971495 44.27725099 -63.1875 43.1875 C-62.465625 43.125625 -61.74375 43.06375 -61 43 C-61 42.34 -61 41.68 -61 41 C-62.65 41.66 -64.3 42.32 -66 43 C-65.34 41.35 -64.68 39.7 -64 38 C-63.34 38 -62.68 38 -62 38 C-61.731875 37.360625 -61.46375 36.72125 -61.1875 36.0625 C-60 34 -60 34 -57 33 C-55.44578271 32.91893314 -53.88832973 32.89243102 -52.33203125 32.90234375 C-51.43935547 32.90556641 -50.54667969 32.90878906 -49.62695312 32.91210938 C-48.69818359 32.92048828 -47.76941406 32.92886719 -46.8125 32.9375 C-45.40194336 32.94426758 -45.40194336 32.94426758 -43.96289062 32.95117188 C-41.64186288 32.96295374 -39.32096356 32.97940442 -37 33 C-37.33 32.34 -37.66 31.68 -38 31 C-41.91694071 31.13899687 -45.83347102 31.28738133 -49.75 31.4375 C-50.86117187 31.47681641 -51.97234375 31.51613281 -53.1171875 31.55664062 C-54.18710938 31.59853516 -55.25703125 31.64042969 -56.359375 31.68359375 C-57.34389648 31.72025146 -58.32841797 31.75690918 -59.34277344 31.79467773 C-61.69823672 31.97668294 -63.72617271 32.4049204 -66 33 C-66.99 33 -67.98 33 -69 33 C-69.33 33.66 -69.66 34.32 -70 35 C-70.66 35 -71.32 35 -72 35 C-72.33 35.99 -72.66 36.98 -73 38 C-74.10773342 34.67679974 -73.93312508 33.30835256 -73 30 C-72.34 29.34 -71.68 28.68 -71 28 C-70.35232207 25.42938689 -70.35232207 25.42938689 -70 23 C-71.65 23.66 -73.3 24.32 -75 25 C-75.8353125 24.01 -75.8353125 24.01 -76.6875 23 C-78.84062308 20.74507789 -78.84062308 20.74507789 -81.75 20.75 C-82.86375 20.87375 -82.86375 20.87375 -84 21 C-84.33 18.36 -84.66 15.72 -85 13 C-83.80101074 12.98018066 -82.60202148 12.96036133 -81.36669922 12.93994141 C-76.85251366 12.86298045 -72.3386132 12.77441525 -67.82470703 12.68261719 C-65.88335868 12.64469646 -63.94194883 12.60978463 -62.00048828 12.578125 C-45.33605663 12.68808821 -45.33605663 12.68808821 -29 10 C-28.34 9.01 -27.68 8.02 -27 7 C-24.525 7.495 -24.525 7.495 -22 8 C-21.67 7.34 -21.34 6.68 -21 6 C-19 5.5 -19 5.5 -16 5 C-10.54954436 4.00900806 -4.90171463 0 0 0 Z " fill="#7A71B1" transform="translate(192,84)"/>
<path d="M0 0 C0 0.66 0 1.32 0 2 C-0.95253662 2.04898438 -1.90507324 2.09796875 -2.88647461 2.1484375 C-6.46213077 2.34227245 -10.03311334 2.58525795 -13.60473633 2.84228516 C-15.14296461 2.94628259 -16.68212525 3.03740236 -18.22192383 3.11474609 C-27.28643783 3.57959297 -33.98194624 4.216264 -40.43579102 11.3203125 C-40.95197998 11.87460938 -41.46816895 12.42890625 -42 13 C-42.66 13 -43.32 13 -44 13 C-47.28729366 20.97844482 -47.4845932 28.24581801 -47.4375 36.8125 C-47.45748047 38.12154297 -47.47746094 39.43058594 -47.49804688 40.77929688 C-47.49740234 42.03419922 -47.49675781 43.28910156 -47.49609375 44.58203125 C-47.49794678 45.71874268 -47.4997998 46.8554541 -47.50170898 48.02661133 C-46.8931356 51.63333411 -45.91046051 52.84211413 -43 55 C-42.01 55 -41.02 55 -40 55 C-40 55.66 -40 56.32 -40 57 C-39.01 56.67 -38.02 56.34 -37 56 C-37 55.34 -37 54.68 -37 54 C-36.01 54 -35.02 54 -34 54 C-34.495 53.5875 -34.99 53.175 -35.5 52.75 C-37 51 -37 51 -37 47 C-36.01 46.67 -35.02 46.34 -34 46 C-34 42.04 -34 38.08 -34 34 C-34.99 33.67 -35.98 33.34 -37 33 C-37.33 31.35 -37.66 29.7 -38 28 C-36.68 28 -35.36 28 -34 28 C-33.67 26.68 -33.34 25.36 -33 24 C-30 25 -30 25 -29 27 C-28.505 25.515 -28.505 25.515 -28 24 C-27.01 24 -26.02 24 -25 24 C-25 24.66 -25 25.32 -25 26 C-23.02 25.34 -21.04 24.68 -19 24 C-18.401875 24.804375 -17.80375 25.60875 -17.1875 26.4375 C-15.19052724 29.22327984 -15.19052724 29.22327984 -12 30 C-11.505 31.485 -11.505 31.485 -11 33 C-10.01 30.525 -10.01 30.525 -9 28 C-4.35677486 32.49344368 -4.23817524 36.86698764 -4 43 C-3.2575 42.7525 -2.515 42.505 -1.75 42.25 C-0.8425 42.1675 0.065 42.085 1 42 C2.33333333 43.33333333 3.66666667 44.66666667 5 46 C7.70705512 45.85974801 7.70705512 45.85974801 10 45 C10.37311779 49.35304083 9.24707038 51.34851063 7 55 C7 56.32 7 57.64 7 59 C7.495 58.01 7.495 58.01 8 57 C8.66 57 9.32 57 10 57 C10.33 56.01 10.66 55.02 11 54 C11.99 53.67 12.98 53.34 14 53 C14 53.66 14 54.32 14 55 C14.54366211 54.67854004 15.08732422 54.35708008 15.64746094 54.02587891 C18.44042512 52.80794247 20.59930528 52.6830009 23.640625 52.5859375 C25.24550781 52.52792969 25.24550781 52.52792969 26.8828125 52.46875 C27.99398437 52.4378125 29.10515625 52.406875 30.25 52.375 C31.93996094 52.31699219 31.93996094 52.31699219 33.6640625 52.2578125 C36.44254548 52.16362664 39.22102334 52.07800414 42 52 C42.33 52.99 42.66 53.98 43 55 C42.41508789 55.01981934 41.83017578 55.03963867 41.22753906 55.06005859 C38.56791975 55.15553481 35.90906162 55.26512142 33.25 55.375 C32.32960938 55.4059375 31.40921875 55.436875 30.4609375 55.46875 C29.57148438 55.50742188 28.68203125 55.54609375 27.765625 55.5859375 C26.94868164 55.6173584 26.13173828 55.6487793 25.29003906 55.68115234 C21.26239238 56.2419313 19.38975227 57.54528902 16.75 60.625 C16.1725 61.40875 15.595 62.1925 15 63 C15.33 63 15.66 63 16 63 C16.99 63 17.98 63 19 63 C19 63.66 19 64.32 19 65 C13.25 68 13.25 68 11 68 C10.34 70.64 9.68 73.28 9 76 C10.65 75.67 12.3 75.34 14 75 C15 78 15 78 14 82 C17.3 82.66 20.6 83.32 24 84 C24 84.33 24 84.66 24 85 C21.93690624 84.88521587 19.87451646 84.75773802 17.8125 84.625 C16.66394531 84.55539063 15.51539062 84.48578125 14.33203125 84.4140625 C11.17481374 84.02172363 8.82668478 83.43668199 6 82 C4.67715102 79.07083439 4.95940868 78.12177395 6 75 C4.52168779 74.80587819 3.04230684 74.61987869 1.5625 74.4375 C0.32693359 74.28087891 0.32693359 74.28087891 -0.93359375 74.12109375 C-1.61550781 74.08113281 -2.29742187 74.04117188 -3 74 C-3.33 74.33 -3.66 74.66 -4 75 C-3.34 75.33 -2.68 75.66 -2 76 C-1.59270772 78.32156597 -1.25561323 80.6568787 -1 83 C-4.3 83 -7.6 83 -11 83 C-10.67 82.34 -10.34 81.68 -10 81 C-8.68 81 -7.36 81 -6 81 C-6.495 76.545 -6.495 76.545 -7 72 C-7.99 72 -8.98 72 -10 72 C-11.1875 70.3125 -11.1875 70.3125 -12 68 C-10.625 65.25 -10.625 65.25 -9 63 C-6.69 63.66 -4.38 64.32 -2 65 C-2 65.66 -2 66.32 -2 67 C-0.68 66.67 0.64 66.34 2 66 C1.34 65.67 0.68 65.34 0 65 C0.495 63.02 0.495 63.02 1 61 C-2.97977076 60.1558062 -6.97007218 59.55312735 -11 59 C-10.67 58.01 -10.34 57.02 -10 56 C-9.34 55.67 -8.68 55.34 -8 55 C-8 53.68 -8 52.36 -8 51 C-9.32 50.34 -10.64 49.68 -12 49 C-12 50.98 -12 52.96 -12 55 C-13.65 54.67 -15.3 54.34 -17 54 C-17.103125 52.88625 -17.20625 51.7725 -17.3125 50.625 C-17.539375 49.42875 -17.76625 48.2325 -18 47 C-18.99 46.34 -19.98 45.68 -21 45 C-21 48.50935186 -20.62457273 51.56484998 -20 55 C-20.99 55 -21.98 55 -23 55 C-23 54.01 -23 53.02 -23 52 C-23.99 51.67 -24.98 51.34 -26 51 C-29.20240944 52.80633037 -31.72772099 55.11860191 -34 58 C-34.68872486 60.98274828 -34.43356512 62.91084854 -34 66 C-33.01 66 -32.02 66 -31 66 C-31 66.66 -31 67.32 -31 68 C-32.65 67.67 -34.3 67.34 -36 67 C-36.495 68.485 -36.495 68.485 -37 70 C-37.66 70 -38.32 70 -39 70 C-39 70.66 -39 71.32 -39 72 C-39.99 71.67 -40.98 71.34 -42 71 C-43.1875 68.4375 -43.1875 68.4375 -44 66 C-44.99 66.495 -44.99 66.495 -46 67 C-46.33 67.99 -46.66 68.98 -47 70 C-47.66 70 -48.32 70 -49 70 C-49.33 67.69 -49.66 65.38 -50 63 C-50.433125 63.495 -50.86625 63.99 -51.3125 64.5 C-53 66 -53 66 -56 66 C-56 66.66 -56 67.32 -56 68 C-55.01 68 -54.02 68 -53 68 C-53 68.66 -53 69.32 -53 70 C-53.66 70 -54.32 70 -55 70 C-54.67 72.97 -54.34 75.94 -54 79 C-56.475 79.495 -56.475 79.495 -59 80 C-59.495 79.01 -59.495 79.01 -60 78 C-60.61875 78.495 -61.2375 78.99 -61.875 79.5 C-64 81 -64 81 -66 81 C-66 80.01 -66 79.02 -66 78 C-66.66 78 -67.32 78 -68 78 C-68.33 74.7 -68.66 71.4 -69 68 C-71.31 67.67 -73.62 67.34 -76 67 C-76 67.99 -76 68.98 -76 70 C-76.66 70 -77.32 70 -78 70 C-78 68.35 -78 66.7 -78 65 C-75.03 65.33 -72.06 65.66 -69 66 C-68.67 64.68 -68.34 63.36 -68 62 C-67.01 62 -66.02 62 -65 62 C-65.66 60.02 -66.32 58.04 -67 56 C-66.34 56 -65.68 56 -65 56 C-65 54.35 -65 52.7 -65 51 C-61.125 51.875 -61.125 51.875 -60 53 C-59.67 52.01 -59.34 51.02 -59 50 C-58.34 50 -57.68 50 -57 50 C-57.33 48.68 -57.66 47.36 -58 46 C-55.69 46 -53.38 46 -51 46 C-50.96036133 45.1529248 -50.92072266 44.30584961 -50.87988281 43.43310547 C-50.72297184 40.26757832 -50.54957667 37.10349221 -50.36523438 33.93945312 C-50.28903058 32.57424269 -50.21926046 31.20865639 -50.15625 29.84277344 C-50.06413155 27.87086294 -49.94635604 25.90020475 -49.828125 23.9296875 C-49.7652832 22.74616699 -49.70244141 21.56264648 -49.63769531 20.34326172 C-48.62622737 15.04041255 -45.46132131 11.17754776 -41.8125 7.3125 C-41.04873047 6.47138672 -41.04873047 6.47138672 -40.26953125 5.61328125 C-34.06762162 1.20469488 -26.39386417 0.40976019 -19 -0.25 C-18.16210938 -0.34023438 -17.32421875 -0.43046875 -16.4609375 -0.5234375 C-10.79261456 -1.06745611 -5.63856387 -0.79576506 0 0 Z " fill="#1C1C2C" transform="translate(112,62)"/>
<path d="M0 0 C2.1640625 0.77734375 2.1640625 0.77734375 4.625 1.9375 C5.44226563 2.31777344 6.25953125 2.69804688 7.1015625 3.08984375 C7.72804688 3.39019531 8.35453125 3.69054687 9 4 C9 3.34 9 2.68 9 2 C9.99 2 10.98 2 12 2 C12 3.65 12 5.3 12 7 C14.81256281 7.02684312 17.62487241 7.04676188 20.4375 7.0625 C21.23994141 7.07087891 22.04238281 7.07925781 22.86914062 7.08789062 C24.91295221 7.0965143 26.95683902 7.0522815 29 7 C29.33 6.67 29.66 6.34 30 6 C32.58938557 5.75611601 35.1543761 5.57314426 37.75 5.4375 C38.51046631 5.3950415 39.27093262 5.35258301 40.05444336 5.30883789 C46.70805144 4.96268033 53.33749492 4.89571731 60 5 C60.0269501 7.93756119 60.04681474 10.87487555 60.0625 13.8125 C60.07087891 14.64587891 60.07925781 15.47925781 60.08789062 16.33789062 C60.09111328 17.14033203 60.09433594 17.94277344 60.09765625 18.76953125 C60.10289307 19.50792236 60.10812988 20.24631348 60.11352539 21.00708008 C60 23 60 23 59 26 C56.03 26.495 56.03 26.495 53 27 C53 27.99 53 28.98 53 30 C52.34 30 51.68 30 51 30 C50.67 31.32 50.34 32.64 50 34 C48.35 33.01 46.7 32.02 45 31 C45 32.65 45 34.3 45 36 C44.34 36 43.68 36 43 36 C43.66 36.99 44.32 37.98 45 39 C45 39.99 45 40.98 45 42 C44.01 42.33 43.02 42.66 42 43 C41.67 43.99 41.34 44.98 41 46 C36.71 46 32.42 46 28 46 C27.67 43.69 27.34 41.38 27 39 C23.98968256 38.06576355 23.13349732 37.95550089 20 39 C20 38.01 20 37.02 20 36 C18.35 35.67 16.7 35.34 15 35 C14.34 36.32 13.68 37.64 13 39 C12.01 39 11.02 39 10 39 C10 40.32 10 41.64 10 43 C7.36 43.33 4.72 43.66 2 44 C2.33 42.35 2.66 40.7 3 39 C2.34 39 1.68 39 1 39 C1 40.32 1 41.64 1 43 C0.01 42.67 -0.98 42.34 -2 42 C-2 28.47 -2 14.94 -2 1 C-1.34 0.67 -0.68 0.34 0 0 Z " fill="#AA9DD0" transform="translate(2,82)"/>
<path d="M0 0 C1.65 0 3.3 0 5 0 C7.125 4.625 7.125 4.625 6 8 C4.5393715 5.35261084 4 4.10551666 4 1 C2.68 0.67 1.36 0.34 0 0 Z M4 8 C5.0209375 8.495 5.0209375 8.495 6.0625 9 C9.58725024 10.37597443 9.58725024 10.37597443 16 10 C16 17.26 16 24.52 16 32 C3.13 31.505 3.13 31.505 -10 31 C-10 29.35 -10 27.7 -10 26 C-10.66 26 -11.32 26 -12 26 C-12 27.32 -12 28.64 -12 30 C-18.27 30 -24.54 30 -31 30 C-31 28.35 -31 26.7 -31 25 C-31.66 25 -32.32 25 -33 25 C-33 26.32 -33 27.64 -33 29 C-35.0839403 28.88556397 -37.16716493 28.75804453 -39.25 28.625 C-40.41015625 28.55539063 -41.5703125 28.48578125 -42.765625 28.4140625 C-45.70694334 28.03751692 -47.49949011 27.5225877 -50 26 C-50 23.69 -50 21.38 -50 19 C-51.65 19.33 -53.3 19.66 -55 20 C-55.25 17.75 -55.25 17.75 -55 15 C-53.0625 12.6875 -53.0625 12.6875 -51 11 C-50.67 11 -50.34 11 -50 11 C-50 12.98 -50 14.96 -50 17 C-49.34 17 -48.68 17 -48 17 C-48 17.66 -48 18.32 -48 19 C-46.68 19 -45.36 19 -44 19 C-44 19.66 -44 20.32 -44 21 C-34.39001659 22.78105026 -25.97181838 24.11768378 -17.16796875 18.91796875 C-13.12673506 17.20681575 -8.64770252 17.58376989 -4.3125 17.44140625 C-0.84458629 16.97929039 0.57401266 16.46680924 3 14 C3.33 13.01 3.66 12.02 4 11 C3.34 10.67 2.68 10.34 2 10 C2.66 9.34 3.32 8.68 4 8 Z " fill="#8676B2" transform="translate(176,118)"/>
<path d="M0 0 C3 1 3 1 4 3 C4.33 2.01 4.66 1.02 5 0 C5.99 0 6.98 0 8 0 C8 0.66 8 1.32 8 2 C9.98 1.34 11.96 0.68 14 0 C14.8971875 1.2065625 14.8971875 1.2065625 15.8125 2.4375 C17.80947276 5.22327984 17.80947276 5.22327984 21 6 C21.33 6.99 21.66 7.98 22 9 C22.66 7.35 23.32 5.7 24 4 C28.64322514 8.49344368 28.76182476 12.86698764 29 19 C29.7425 18.7525 30.485 18.505 31.25 18.25 C32.1575 18.1675 33.065 18.085 34 18 C35.33333333 19.33333333 36.66666667 20.66666667 38 22 C40.70705512 21.85974801 40.70705512 21.85974801 43 21 C43.37311779 25.35304083 42.24707038 27.34851063 40 31 C40 32.32 40 33.64 40 35 C40.495 34.01 40.495 34.01 41 33 C41.66 33 42.32 33 43 33 C43.33 32.01 43.66 31.02 44 30 C44.99 29.67 45.98 29.34 47 29 C47 29.66 47 30.32 47 31 C47.54366211 30.67854004 48.08732422 30.35708008 48.64746094 30.02587891 C51.44042512 28.80794247 53.59930528 28.6830009 56.640625 28.5859375 C57.71054688 28.54726562 58.78046875 28.50859375 59.8828125 28.46875 C60.99398437 28.4378125 62.10515625 28.406875 63.25 28.375 C64.37664062 28.33632812 65.50328125 28.29765625 66.6640625 28.2578125 C69.44254548 28.16362664 72.22102334 28.07800414 75 28 C75.495 29.485 75.495 29.485 76 31 C75.12263184 31.029729 75.12263184 31.029729 74.22753906 31.06005859 C71.56791975 31.15553481 68.90906162 31.26512142 66.25 31.375 C65.32960938 31.4059375 64.40921875 31.436875 63.4609375 31.46875 C62.12675781 31.52675781 62.12675781 31.52675781 60.765625 31.5859375 C59.94868164 31.6173584 59.13173828 31.6487793 58.29003906 31.68115234 C54.26239238 32.2419313 52.38975227 33.54528902 49.75 36.625 C49.1725 37.40875 48.595 38.1925 48 39 C48.33 39 48.66 39 49 39 C49.99 39 50.98 39 52 39 C52 39.66 52 40.32 52 41 C48.55166676 43.05257931 46.68338409 44.0632763 42.625 43.6875 C41.75875 43.460625 40.8925 43.23375 40 43 C40 42.01 40 41.02 40 40 C38.68 39.67 37.36 39.34 36 39 C36.33 36.03 36.66 33.06 37 30 C33.88214887 30.64644661 33.88214887 30.64644661 33 33 C32.01 32.67 31.02 32.34 30 32 C30.99 28.7 31.98 25.4 33 22 C32.34 22 31.68 22 31 22 C30.67 23.32 30.34 24.64 30 26 C28.68 26 27.36 26 26 26 C26.33 22.37 26.66 18.74 27 15 C25.68 17.64 24.36 20.28 23 23 C22.01 23 21.02 23 20 23 C20 22.01 20 21.02 20 20 C18.35 20.33 16.7 20.66 15 21 C15 20.34 15 19.68 15 19 C14.01 19.33 13.02 19.66 12 20 C10.5 18.625 10.5 18.625 9 17 C9 16.34 9 15.68 9 15 C8.01 15.33 7.02 15.66 6 16 C6 15.34 6 14.68 6 14 C4.68 13.67 3.36 13.34 2 13 C1.34 14.32 0.68 15.64 0 17 C-0.33 17 -0.66 17 -1 17 C-1 14.69 -1 12.38 -1 10 C-1.99 9.67 -2.98 9.34 -4 9 C-4.33 7.35 -4.66 5.7 -5 4 C-3.68 4 -2.36 4 -1 4 C-0.67 2.68 -0.34 1.36 0 0 Z " fill="#4A466D" transform="translate(79,86)"/>
<path d="M0 0 C0.495 0.99 0.495 0.99 1 2 C3.02463255 2.65213292 3.02463255 2.65213292 5 3 C5.66 5.31 6.32 7.62 7 10 C6.01 10.66 5.02 11.32 4 12 C4.495 13.98 4.495 13.98 5 16 C1.09396913 19.68659093 -1.29700254 20.45189167 -6.625 20.5 C-13.4560478 20.7864171 -18.71733405 22.48270287 -25 25 C-31.32508961 26.77102509 -36.92462097 25.02512634 -43 23 C-43 22.34 -43 21.68 -43 21 C-44.32 21 -45.64 21 -47 21 C-47 20.34 -47 19.68 -47 19 C-47.66 19 -48.32 19 -49 19 C-49 17.02 -49 15.04 -49 13 C-47.02 12.67 -45.04 12.34 -43 12 C-43 10.68 -43 9.36 -43 8 C-41.44033782 7.491217 -39.87710759 6.99336531 -38.3125 6.5 C-37.44238281 6.2215625 -36.57226562 5.943125 -35.67578125 5.65625 C-33.00608323 5.00149195 -30.73603316 4.88168505 -28 5 C-28.625 7.3125 -28.625 7.3125 -30 10 C-31.98320018 11.03291676 -33.98347806 12.0337499 -36 13 C-37.40466953 15.05093145 -37.40466953 15.05093145 -38 17 C-33.07284004 17.46192125 -29.49267375 15.8275283 -25 14 C-25 13.34 -25 12.68 -25 12 C-22.5625 12.375 -22.5625 12.375 -20 13 C-19.67 13.66 -19.34 14.32 -19 15 C-15.97065509 15.65772428 -15.97065509 15.65772428 -13 16 C-12.67 14.35 -12.34 12.7 -12 11 C-13.98 11 -15.96 11 -18 11 C-18 9.35 -18 7.7 -18 6 C-17.2575 5.9175 -16.515 5.835 -15.75 5.75 C-12.44300369 4.84809192 -11.31547635 3.46486192 -9 1 C-5.74145953 -1.20739838 -3.73496078 -1.21133863 0 0 Z " fill="#9A8CC2" transform="translate(175,116)"/>
<path d="M0 0 C1.09898702 3.29696105 0.87124444 4.40494903 0.0625 7.6875 C-0.13214844 8.49574219 -0.32679687 9.30398437 -0.52734375 10.13671875 C-0.68332031 10.75160156 -0.83929688 11.36648437 -1 12 C-0.01 11.67 0.98 11.34 2 11 C2.33 10.34 2.66 9.68 3 9 C3.99 8.67 4.98 8.34 6 8 C6.22036864 11.85645121 5.60355101 14.49223216 4 18 C4.66 18.33 5.32 18.66 6 19 C6.33 18.01 6.66 17.02 7 16 C7.99 16 8.98 16 10 16 C10.125 22.75 10.125 22.75 9 25 C10.32 25.33 11.64 25.66 13 26 C13 26.99 13 27.98 13 29 C14.32 29 15.64 29 17 29 C16.34 31.97 15.68 34.94 15 38 C17.475 37.505 17.475 37.505 20 37 C21 40 21 40 20 44 C23.3 44.66 26.6 45.32 30 46 C30 46.33 30 46.66 30 47 C27.93690624 46.88521587 25.87451646 46.75773802 23.8125 46.625 C22.66394531 46.55539063 21.51539063 46.48578125 20.33203125 46.4140625 C17.17481374 46.02172363 14.82668478 45.43668199 12 44 C10.67715102 41.07083439 10.95940868 40.12177395 12 37 C10.52168779 36.80587819 9.04230684 36.61987869 7.5625 36.4375 C6.73878906 36.33308594 5.91507813 36.22867188 5.06640625 36.12109375 C4.38449219 36.08113281 3.70257813 36.04117188 3 36 C2.67 36.33 2.34 36.66 2 37 C2.66 37.33 3.32 37.66 4 38 C4.40729228 40.32156597 4.74438677 42.6568787 5 45 C1.7 45 -1.6 45 -5 45 C-4.67 44.34 -4.34 43.68 -4 43 C-2.68 43 -1.36 43 0 43 C-0.33 40.03 -0.66 37.06 -1 34 C-1.99 34 -2.98 34 -4 34 C-5.1875 32.3125 -5.1875 32.3125 -6 30 C-4.625 27.25 -4.625 27.25 -3 25 C-0.69 25.66 1.62 26.32 4 27 C4 27.66 4 28.32 4 29 C5.32 28.67 6.64 28.34 8 28 C7.34 27.67 6.68 27.34 6 27 C6.33 25.68 6.66 24.36 7 23 C3.02022924 22.1558062 -0.97007218 21.55312735 -5 21 C-4.67 20.01 -4.34 19.02 -4 18 C-3.34 17.67 -2.68 17.34 -2 17 C-2 15.68 -2 14.36 -2 13 C-3.32 12.34 -4.64 11.68 -6 11 C-6 12.98 -6 14.96 -6 17 C-7.65 16.67 -9.3 16.34 -11 16 C-11.103125 14.88625 -11.20625 13.7725 -11.3125 12.625 C-11.539375 11.42875 -11.76625 10.2325 -12 9 C-12.99 8.34 -13.98 7.68 -15 7 C-15.66 8.32 -16.32 9.64 -17 11 C-17.66 10.34 -18.32 9.68 -19 9 C-18.34 9 -17.68 9 -17 9 C-17 8.34 -17 7.68 -17 7 C-17.99 6.67 -18.98 6.34 -20 6 C-14.25 5 -14.25 5 -12 5 C-12 5.66 -12 6.32 -12 7 C-10.35 6.67 -8.7 6.34 -7 6 C-7 6.99 -7 7.98 -7 9 C-6.01 9 -5.02 9 -4 9 C-3.71125 8.071875 -3.4225 7.14375 -3.125 6.1875 C-2 3 -2 3 0 0 Z " fill="#1B1A28" transform="translate(106,100)"/>
<path d="M0 0 C1.32 0.33 2.64 0.66 4 1 C3.62724214 3.70249451 3.21551151 4.79935135 1.1875 6.6875 C-3.43070896 9.45842537 -7.73601863 9.08773302 -13 9 C-13 9.66 -13 10.32 -13 11 C-13.64066406 11.18175781 -14.28132813 11.36351563 -14.94140625 11.55078125 C-20.13481682 13.06004363 -25.13588856 14.61969015 -30 17 C-30.33 17.66 -30.66 18.32 -31 19 C-33 18.33333333 -35 17.66666667 -37 17 C-35.68 15.02 -34.36 13.04 -33 11 C-33.99 11.495 -33.99 11.495 -35 12 C-35.33 12.99 -35.66 13.98 -36 15 C-36.99 15.66 -37.98 16.32 -39 17 C-39.25736052 19.02671408 -39.510439 21.05488546 -39.69140625 23.08984375 C-40 25 -40 25 -41.4375 27 C-43 28 -43 28 -45 28 C-45.33 28.99 -45.66 29.98 -46 31 C-47.10773342 27.67679974 -46.93312508 26.30835256 -46 23 C-45.34 22.34 -44.68 21.68 -44 21 C-43.35232207 18.42938689 -43.35232207 18.42938689 -43 16 C-44.65 16.66 -46.3 17.32 -48 18 C-48.8353125 17.01 -48.8353125 17.01 -49.6875 16 C-51.84062308 13.74507789 -51.84062308 13.74507789 -54.75 13.75 C-55.86375 13.87375 -55.86375 13.87375 -57 14 C-57.33 11.36 -57.66 8.72 -58 6 C-56.80101074 5.98018066 -55.60202148 5.96036133 -54.36669922 5.93994141 C-49.85251366 5.86298045 -45.3386132 5.77441525 -40.82470703 5.68261719 C-38.88335868 5.64469646 -36.94194883 5.60978463 -35.00048828 5.578125 C-18.33605663 5.68808821 -18.33605663 5.68808821 -2 3 C-1.34 2.01 -0.68 1.02 0 0 Z " fill="#9E94CB" transform="translate(165,91)"/>
<path d="M0 0 C2.33534901 0.03794942 4.6696518 0.15510753 7 0.3125 C8.27875 0.39113281 9.5575 0.46976563 10.875 0.55078125 C11.90625 0.69902344 12.9375 0.84726563 14 1 C14.495 1.99 14.495 1.99 15 3 C17.30965848 4.05352843 19.6429774 5.05719096 22 6 C21.01 7.98 20.02 9.96 19 12 C17.68 12 16.36 12 15 12 C14.505 9.525 14.505 9.525 14 7 C11.525 6.505 11.525 6.505 9 6 C9 5.67 9 5.34 9 5 C6.58380177 4.74969023 6.58380177 4.74969023 4 5 C3.01 6.485 3.01 6.485 2 8 C0.68 8 -0.64 8 -2 8 C-2.66 7.34 -3.32 6.68 -4 6 C-4.33 6 -4.66 6 -5 6 C-5.04898438 6.92941406 -5.09796875 7.85882813 -5.1484375 8.81640625 C-5.8343135 20.15701109 -5.8343135 20.15701109 -7.125 24.125 C-8.0245519 27.08067053 -7.94641609 28.16075173 -7 31 C-7.33 31.66 -7.66 32.32 -8 33 C-9.98 33 -11.96 33 -14 33 C-14.25 27.375 -14.25 27.375 -12 24 C-12.78375 23.87625 -13.5675 23.7525 -14.375 23.625 C-17 22 -17 22 -17.8125 19.88671875 C-18.96098104 14.63082289 -19.14052758 10.24642689 -18 5 C-17.01 5 -16.02 5 -15 5 C-15 7.31 -15 9.62 -15 12 C-13.02 12 -11.04 12 -9 12 C-9.01160156 11.37351563 -9.02320313 10.74703125 -9.03515625 10.1015625 C-9.04417969 9.28429687 -9.05320313 8.46703125 -9.0625 7.625 C-9.07410156 6.81289062 -9.08570313 6.00078125 -9.09765625 5.1640625 C-9 3 -9 3 -8 1 C-6.865625 1.020625 -5.73125 1.04125 -4.5625 1.0625 C-1.18424326 1.41577477 -1.18424326 1.41577477 0 0 Z M-14 21 C-13 23 -13 23 -13 23 Z " fill="#160C15" transform="translate(159,155)"/>
<path d="M0 0 C0 1.98 0 3.96 0 6 C0.66 6 1.32 6 2 6 C2 6.66 2 7.32 2 8 C3.32 8 4.64 8 6 8 C6 8.66 6 9.32 6 10 C15.25065613 11.71445494 22.08854571 12.36219704 31 9 C36.07109231 8.03824111 40.8615941 7.90985253 46 8 C46 8.33 46 8.66 46 9 C45.10796875 9.13277344 44.2159375 9.26554688 43.296875 9.40234375 C42.12640625 9.57894531 40.9559375 9.75554687 39.75 9.9375 C38.58984375 10.11152344 37.4296875 10.28554687 36.234375 10.46484375 C35.16703125 10.64144531 34.0996875 10.81804687 33 11 C32.2265625 11.12375 31.453125 11.2475 30.65625 11.375 C30.1096875 11.58125 29.563125 11.7875 29 12 C27.6954344 14.99615946 27.6954344 14.99615946 27 18 C30.3 18 33.6 18 37 18 C37.495 16.515 37.495 16.515 38 15 C38 16.32 38 17.64 38 19 C31.73 19 25.46 19 19 19 C19 17.35 19 15.7 19 14 C18.34 14 17.68 14 17 14 C17 15.32 17 16.64 17 18 C14.9160597 17.88556397 12.83283507 17.75804453 10.75 17.625 C9.58984375 17.55539063 8.4296875 17.48578125 7.234375 17.4140625 C4.29305666 17.03751692 2.50050989 16.5225877 0 15 C0 12.69 0 10.38 0 8 C-1.65 8.33 -3.3 8.66 -5 9 C-5.25 6.75 -5.25 6.75 -5 4 C-1.64864865 0 -1.64864865 0 0 0 Z " fill="#7167A3" transform="translate(126,129)"/>
<path d="M0 0 C0 0.66 0 1.32 0 2 C-1.42880493 2.07347656 -1.42880493 2.07347656 -2.88647461 2.1484375 C-6.46213077 2.34227245 -10.03311334 2.58525795 -13.60473633 2.84228516 C-15.14296461 2.94628259 -16.68212525 3.03740236 -18.22192383 3.11474609 C-27.28643783 3.57959297 -33.98194624 4.216264 -40.43579102 11.3203125 C-40.95197998 11.87460938 -41.46816895 12.42890625 -42 13 C-42.66 13 -43.32 13 -44 13 C-47.19658555 20.87576975 -47.53633146 28.11865713 -47.6875 36.5625 C-47.72166016 37.85736328 -47.75582031 39.15222656 -47.79101562 40.48632812 C-47.87292692 43.65746544 -47.94226397 46.82834594 -48 50 C-48.66 49.34 -49.32 48.68 -50 48 C-52.60280568 48.32041397 -52.60280568 48.32041397 -55 49 C-55 49.66 -55 50.32 -55 51 C-55.99 51.495 -55.99 51.495 -57 52 C-57.33 52.99 -57.66 53.98 -58 55 C-58.99 55 -59.98 55 -61 55 C-60.34 53.35 -59.68 51.7 -59 50 C-58.34 50 -57.68 50 -57 50 C-57.33 48.68 -57.66 47.36 -58 46 C-55.69 46 -53.38 46 -51 46 C-50.96036133 45.1529248 -50.92072266 44.30584961 -50.87988281 43.43310547 C-50.72297184 40.26757832 -50.54957667 37.10349221 -50.36523438 33.93945312 C-50.28903058 32.57424269 -50.21926046 31.20865639 -50.15625 29.84277344 C-50.06413155 27.87086294 -49.94635604 25.90020475 -49.828125 23.9296875 C-49.7652832 22.74616699 -49.70244141 21.56264648 -49.63769531 20.34326172 C-48.62622737 15.04041255 -45.46132131 11.17754776 -41.8125 7.3125 C-41.30332031 6.75175781 -40.79414062 6.19101563 -40.26953125 5.61328125 C-34.06762162 1.20469488 -26.39386417 0.40976019 -19 -0.25 C-18.16210938 -0.34023438 -17.32421875 -0.43046875 -16.4609375 -0.5234375 C-10.79261456 -1.06745611 -5.63856387 -0.79576506 0 0 Z " fill="#3A3866" transform="translate(112,62)"/>
<path d="M0 0 C3 1 3 1 4 3 C4.33 2.01 4.66 1.02 5 0 C5.99 0 6.98 0 8 0 C8 0.66 8 1.32 8 2 C9.98 1.34 11.96 0.68 14 0 C14.8971875 1.2065625 14.8971875 1.2065625 15.8125 2.4375 C17.80947276 5.22327984 17.80947276 5.22327984 21 6 C21.33 8.31 21.66 10.62 22 13 C20.35 13 18.7 13 17 13 C17 11.02 17 9.04 17 7 C16.01 7 15.02 7 14 7 C14 6.34 14 5.68 14 5 C11.69 5 9.38 5 7 5 C7.54724567 8.8307197 9.28155271 10.36924456 12 13 C12 13.66 12 14.32 12 15 C10.02 15.33 8.04 15.66 6 16 C6 15.34 6 14.68 6 14 C4.68 13.67 3.36 13.34 2 13 C1.34 14.32 0.68 15.64 0 17 C-0.33 17 -0.66 17 -1 17 C-1 14.69 -1 12.38 -1 10 C-1.99 9.67 -2.98 9.34 -4 9 C-4.33 7.35 -4.66 5.7 -5 4 C-3.68 4 -2.36 4 -1 4 C-0.67 2.68 -0.34 1.36 0 0 Z " fill="#464267" transform="translate(79,86)"/>
<path d="M0 0 C13.96271439 -0.51116668 26.51072012 0.26963124 40 4 C40 4.66 40 5.32 40 6 C42.97 6 45.94 6 49 6 C49 6.33 49 6.66 49 7 C47.24623047 7.09087891 47.24623047 7.09087891 45.45703125 7.18359375 C43.90884386 7.26804034 42.36066732 7.35268625 40.8125 7.4375 C40.04357422 7.47681641 39.27464844 7.51613281 38.48242188 7.55664062 C35.37546565 7.72999011 32.4225425 7.90945518 29.375 8.5625 C26.22179573 9.14335342 23.37416088 8.85219644 20.1875 8.5625 C18.44533203 8.40974609 18.44533203 8.40974609 16.66796875 8.25390625 C15.78753906 8.17011719 14.90710937 8.08632812 14 8 C14 6.35 14 4.7 14 3 C13.01 3 12.02 3 11 3 C11 3.66 11 4.32 11 5 C4.25 4.25 4.25 4.25 2 2 C1.34 2 0.68 2 0 2 C0 1.34 0 0.68 0 0 Z " fill="#7D76B8" transform="translate(0,81)"/>
<path d="M0 0 C1.65 0 3.3 0 5 0 C5.66 1.65 6.32 3.3 7 5 C8.98 5 10.96 5 13 5 C13 6.32 13 7.64 13 9 C12.01 9 11.02 9 10 9 C10 10.32 10 11.64 10 13 C9.34 13 8.68 13 8 13 C8.33 13.99 8.66 14.98 9 16 C9.03954234 18.33299825 9.04401732 20.66708189 9 23 C8.34 23 7.68 23 7 23 C7 22.34 7 21.68 7 21 C4.69 20.34 2.38 19.68 0 19 C0 12.73 0 6.46 0 0 Z " fill="#A99ED1" transform="translate(64,93)"/>
<path d="M0 0 C0 3.63 0 7.26 0 11 C-1.32 10.67 -2.64 10.34 -4 10 C-6.93090009 11.46545004 -9.37733837 13.28300378 -12 15.25 C-15 17 -15 17 -17.875 16.75 C-18.57625 16.5025 -19.2775 16.255 -20 16 C-18.125 11.25 -18.125 11.25 -17 9 C-17.99 9 -18.98 9 -20 9 C-20 8.34 -20 7.68 -20 7 C-16.6932738 5.14500725 -14.15746993 4.02171999 -10.375 3.5 C-6.07598358 2.86310868 -4.22752298 0 0 0 Z " fill="#9A8FCA" transform="translate(192,84)"/>
<path d="M0 0 C0.495 1.485 0.495 1.485 1 3 C0.41508789 3.01981934 -0.16982422 3.03963867 -0.77246094 3.06005859 C-3.43208025 3.15553481 -6.09093838 3.26512142 -8.75 3.375 C-9.67039063 3.4059375 -10.59078125 3.436875 -11.5390625 3.46875 C-12.42851562 3.50742188 -13.31796875 3.54609375 -14.234375 3.5859375 C-15.05131836 3.6173584 -15.86826172 3.6487793 -16.70996094 3.68115234 C-21.87433984 4.40020126 -23.94573331 6.96048599 -27 11 C-28.5 12.875 -28.5 12.875 -30 14 C-32.1875 13.6875 -32.1875 13.6875 -34 13 C-32.125 8.25 -32.125 8.25 -31 6 C-31.99 5.67 -32.98 5.34 -34 5 C-33.34 5 -32.68 5 -32 5 C-31.67 4.01 -31.34 3.02 -31 2 C-30.01 1.67 -29.02 1.34 -28 1 C-28 1.66 -28 2.32 -28 3 C-27.49984375 2.68289062 -26.9996875 2.36578125 -26.484375 2.0390625 C-23.12391728 0.63358804 -19.84119873 0.53520217 -16.25 0.375 C-15.57195312 0.33632812 -14.89390625 0.29765625 -14.1953125 0.2578125 C-9.45946991 0.00571442 -4.74200281 -0.03189688 0 0 Z " fill="#524B72" transform="translate(154,114)"/>
<path d="M0 0 C4.61992587 0.34649444 8.47928386 1.58023351 12.36328125 4.05859375 C15.79706549 8.13160274 15.11916095 13.91331711 15 19 C13.68 19 12.36 19 11 19 C12.12451727 21.9719385 13.22293791 24.33440687 15 27 C13.68 26.67 12.36 26.34 11 26 C11.33 26.99 11.66 27.98 12 29 C10.68 29 9.36 29 8 29 C8 28.34 8 27.68 8 27 C6.68 27.33 5.36 27.66 4 28 C2.68 26.02 1.36 24.04 0 22 C4.75 22.875 4.75 22.875 7 24 C7 24.66 7 25.32 7 26 C7.66 26 8.32 26 9 26 C8.67 22.7 8.34 19.4 8 16 C8.66 16 9.32 16 10 16 C10 14.68 10 13.36 10 12 C10.99 12 11.98 12 13 12 C13 10.68 13 9.36 13 8 C11.02 8 9.04 8 7 8 C6.34 6.35 5.68 4.7 5 3 C3.35 3 1.7 3 0 3 C0 2.01 0 1.02 0 0 Z " fill="#8D84C0" transform="translate(64,90)"/>
<path d="M0 0 C2.31 0 4.62 0 7 0 C5.83503836 3.49488493 5.13977274 4.1916167 2 6 C-0.99609375 6.44140625 -0.99609375 6.44140625 -4.4375 6.5625 C-11.39357886 6.91285864 -18.13954595 7.82620138 -25 9 C-25 8.01 -25 7.02 -25 6 C-25.99 5.67 -26.98 5.34 -28 5 C-27.34 4.01 -26.68 3.02 -26 2 C-22.4375 1.75 -22.4375 1.75 -19 2 C-18.67 2.33 -18.34 2.66 -18 3 C-16.31391034 3.07205511 -14.62499341 3.08386068 -12.9375 3.0625 C-12.01839844 3.05347656 -11.09929687 3.04445312 -10.15234375 3.03515625 C-9.44207031 3.02355469 -8.73179687 3.01195312 -8 3 C-7.67 2.34 -7.34 1.68 -7 1 C-6.34 1 -5.68 1 -5 1 C-5 1.66 -5 2.32 -5 3 C-3.35 3 -1.7 3 0 3 C0 2.01 0 1.02 0 0 Z " fill="#AA95C5" transform="translate(173,130)"/>
<path d="M0 0 C-0.90788404 3.97199266 -2.48469026 5.58176729 -5.8125 7.6875 C-8.167598 9.06380047 -10.30698166 10.11344974 -12.875 11.0625 C-15.17743876 11.83867992 -15.17743876 11.83867992 -16.3125 14.125 C-16.539375 14.74375 -16.76625 15.3625 -17 16 C-17.66 16 -18.32 16 -19 16 C-19 15.34 -19 14.68 -19 14 C-19.66 14 -20.32 14 -21 14 C-21 12.02 -21 10.04 -21 8 C-19.02 7.67 -17.04 7.34 -15 7 C-15 5.68 -15 4.36 -15 3 C-13.44033782 2.491217 -11.87710759 1.99336531 -10.3125 1.5 C-9.44238281 1.2215625 -8.57226562 0.943125 -7.67578125 0.65625 C-5.00608323 0.00149195 -2.73603316 -0.11831495 0 0 Z " fill="#A898C7" transform="translate(147,121)"/>
<path d="M0 0 C0.33 0 0.66 0 1 0 C1 4.29 1 8.58 1 13 C1.66 13 2.32 13 3 13 C3.33 11.68 3.66 10.36 4 9 C4.66 9 5.32 9 6 9 C6.33 8.34 6.66 7.68 7 7 C7.28875 8.134375 7.5775 9.26875 7.875 10.4375 C8.24625 11.613125 8.6175 12.78875 9 14 C9.66 14.33 10.32 14.66 11 15 C11 14.34 11 13.68 11 13 C12.1875 11.3125 12.1875 11.3125 14 10 C16.6875 10.3125 16.6875 10.3125 19 11 C18.4225 11.2475 17.845 11.495 17.25 11.75 C14.89483142 12.90059472 14.89483142 12.90059472 13.1875 15 C10.35986873 17.58526288 7.68716566 18.14911562 4 19 C3.01 17.68 2.02 16.36 1 15 C0.01 15.33 -0.98 15.66 -2 16 C-2.33 14.35 -2.66 12.7 -3 11 C-3.99 11 -4.98 11 -6 11 C-6 10.34 -6 9.68 -6 9 C-4.35 8.67 -2.7 8.34 -1 8 C-0.67 5.36 -0.34 2.72 0 0 Z M-5 13 C-4.01 13.495 -4.01 13.495 -3 14 C-3.99 15.485 -3.99 15.485 -5 17 C-5 15.68 -5 14.36 -5 13 Z " fill="#10101A" transform="translate(62,119)"/>
<path d="M0 0 C1.32 0.33 2.64 0.66 4 1 C3.62724214 3.70249451 3.21551151 4.79935135 1.1875 6.6875 C-4.08286944 9.84972166 -9.72142492 9.03861992 -15.6875 8.9375 C-18.38205289 8.98834062 -20.45858843 9.1867483 -23 10 C-23.33 9.34 -23.66 8.68 -24 8 C-26.52733235 7.34444881 -26.52733235 7.34444881 -29 7 C-29 6.67 -29 6.34 -29 6 C-26.1875 5.6875 -23.375 5.375 -20.5625 5.0625 C-19.3878418 4.93198242 -19.3878418 4.93198242 -18.18945312 4.79882812 C-17.01479492 4.66831055 -17.01479492 4.66831055 -15.81640625 4.53515625 C-14.63135498 4.39811279 -14.63135498 4.39811279 -13.42236328 4.25830078 C-11.77248172 4.08237106 -10.11923513 3.93605847 -8.46435547 3.81591797 C-7.25803467 3.71947998 -7.25803467 3.71947998 -6.02734375 3.62109375 C-4.93860962 3.54846313 -4.93860962 3.54846313 -3.82788086 3.47436523 C-1.59292811 3.11092855 -1.59292811 3.11092855 0 0 Z " fill="#8D84C3" transform="translate(165,91)"/>
<path d="M0 0 C0.99 0.33 1.98 0.66 3 1 C2.2884375 1.6496875 2.2884375 1.6496875 1.5625 2.3125 C-0.23686957 4.02309613 -0.23686957 4.02309613 -1 7 C-0.34 6.67 0.32 6.34 1 6 C1 6.66 1 7.32 1 8 C1.66 8.33 2.32 8.66 3 9 C3.33 8.01 3.66 7.02 4 6 C6.43359375 4.796875 6.43359375 4.796875 9.4375 3.75 C10.42621094 3.39421875 11.41492188 3.0384375 12.43359375 2.671875 C15 2 15 2 17 3 C14.07283831 5.09082978 11.60745093 6.82832909 8.125 7.8125 C4.17597166 9.31313077 1.77067982 11.65574979 -1.265625 14.5390625 C-3 16 -3 16 -5 16 C-6.4783226 13.04335481 -6.06032783 10.25770263 -6 7 C-5.360625 6.7525 -4.72125 6.505 -4.0625 6.25 C-1.81723287 5.19352316 -1.81723287 5.19352316 -1.3125 2.9375 C-1.1578125 1.9784375 -1.1578125 1.9784375 -1 1 C-0.67 0.67 -0.34 0.34 0 0 Z " fill="#817BBC" transform="translate(131,101)"/>
<path d="M0 0 C0.99 0 1.98 0 3 0 C3 0.66 3 1.32 3 2 C5.31 2 7.62 2 10 2 C10 1.34 10 0.68 10 0 C10.66 0 11.32 0 12 0 C12 1.65 12 3.3 12 5 C11.34 5 10.68 5 10 5 C10 6.32 10 7.64 10 9 C8.68 9.33 7.36 9.66 6 10 C6 10.99 6 11.98 6 13 C5.01 13 4.02 13 3 13 C2.34 13.66 1.68 14.32 1 15 C0.875 8.25 0.875 8.25 2 6 C1.01 5.67 0.02 5.34 -1 5 C-0.67 3.35 -0.34 1.7 0 0 Z " fill="#151523" transform="translate(48,115)"/>
<path d="M0 0 C1.32 0.66 2.64 1.32 4 2 C3.34 2.66 2.68 3.32 2 4 C2 4.99 2 5.98 2 7 C1.34 7 0.68 7 0 7 C-0.33 8.32 -0.66 9.64 -1 11 C-2.65 10.01 -4.3 9.02 -6 8 C-6 9.65 -6 11.3 -6 13 C-6.66 13 -7.32 13 -8 13 C-7.67 13.99 -7.34 14.98 -7 16 C-8.32 16 -9.64 16 -11 16 C-10.79375 15.2575 -10.5875 14.515 -10.375 13.75 C-9.95591249 10.67669159 -10.38050989 9.57213134 -12 7 C-11.01 7 -10.02 7 -9 7 C-9 6.34 -9 5.68 -9 5 C-8.34 5 -7.68 5 -7 5 C-7 3.68 -7 2.36 -7 1 C-2.125 2.75 -2.125 2.75 -1 5 C-0.67 3.35 -0.34 1.7 0 0 Z " fill="#8379A7" transform="translate(53,105)"/>
<path d="M0 0 C0 0.66 0 1.32 0 2 C0.99 2 1.98 2 3 2 C3 3.98 3 5.96 3 8 C4.98 8 6.96 8 9 8 C9 9.65 9 11.3 9 13 C8.01 13.33 7.02 13.66 6 14 C6 13.01 6 12.02 6 11 C5.01 11 4.02 11 3 11 C1.3125 9.5 1.3125 9.5 0 8 C0 9.65 0 11.3 0 13 C-0.33 13 -0.66 13 -1 13 C-1 11.35 -1 9.7 -1 8 C-1.99 7.67 -2.98 7.34 -4 7 C-4 6.34 -4 5.68 -4 5 C-5.32 4.34 -6.64 3.68 -8 3 C-7.67 2.01 -7.34 1.02 -7 0 C-4.3333581 -1.33332095 -2.83319697 -0.67102033 0 0 Z " fill="#26253E" transform="translate(93,91)"/>
<path d="M0 0 C1.75 1.3125 1.75 1.3125 3.75 4.3125 C4.74 4.6425 5.73 4.9725 6.75 5.3125 C7.08 7.6225 7.41 9.9325 7.75 12.3125 C6.1 12.3125 4.45 12.3125 2.75 12.3125 C2.75 10.3325 2.75 8.3525 2.75 6.3125 C1.76 6.3125 0.77 6.3125 -0.25 6.3125 C-0.25 5.6525 -0.25 4.9925 -0.25 4.3125 C-2.56 4.3125 -4.87 4.3125 -7.25 4.3125 C-7.58 5.6325 -7.91 6.9525 -8.25 8.3125 C-9.57 7.9825 -10.89 7.6525 -12.25 7.3125 C-12.25 7.9725 -12.25 8.6325 -12.25 9.3125 C-12.91 9.3125 -13.57 9.3125 -14.25 9.3125 C-13.92 7.9925 -13.59 6.6725 -13.25 5.3125 C-11.6 5.3125 -9.95 5.3125 -8.25 5.3125 C-8.25 3.9925 -8.25 2.6725 -8.25 1.3125 C-2.8860424 -0.88184629 -2.8860424 -0.88184629 0 0 Z " fill="#444170" transform="translate(93.25,86.6875)"/>
<path d="M0 0 C0.66 0 1.32 0 2 0 C2 1.65 2 3.3 2 5 C4.81256281 5.02684312 7.62487241 5.04676188 10.4375 5.0625 C11.64116211 5.07506836 11.64116211 5.07506836 12.86914062 5.08789062 C14.91295221 5.0965143 16.95683902 5.0522815 19 5 C19.33 4.67 19.66 4.34 20 4 C22.58938557 3.75611601 25.1543761 3.57314426 27.75 3.4375 C28.51046631 3.3950415 29.27093262 3.35258301 30.05444336 3.30883789 C36.70805144 2.96268033 43.33749492 2.89571731 50 3 C50 4.65 50 6.3 50 8 C49.505 6.02 49.505 6.02 49 4 C46.62483024 4.31124998 44.24986818 4.62396403 41.875 4.9375 C41.20984375 5.02451172 40.5446875 5.11152344 39.859375 5.20117188 C36.77275365 5.60969529 33.70639284 6.05223476 30.640625 6.59765625 C27.96465837 7.00538489 26.55833103 6.68222161 24 6 C22.66590426 6.33026875 21.33267167 6.66403108 20 7 C16.96061118 7.21280729 13.92115754 7.18509387 10.875 7.1875 C9.63943359 7.20586914 9.63943359 7.20586914 8.37890625 7.22460938 C6.25129286 7.22983265 4.12408323 7.1226232 2 7 C0 5 0 5 -0.125 2.375 C-0.08375 1.59125 -0.0425 0.8075 0 0 Z " fill="#938AC7" transform="translate(12,84)"/>
<path d="M0 0 C2.4375 0.375 2.4375 0.375 5 1 C5.33 1.66 5.66 2.32 6 3 C6.99 2.67 7.98 2.34 9 2 C9 2.66 9 3.32 9 4 C9.99 4 10.98 4 12 4 C12.33 6.31 12.66 8.62 13 11 C13.99 11.33 14.98 11.66 16 12 C14.68 12 13.36 12 12 12 C12 11.01 12 10.02 12 9 C11.05125 8.87625 10.1025 8.7525 9.125 8.625 C6 8 6 8 4 6 C4 4.68 4 3.36 4 2 C2.68 2.33 1.36 2.66 0 3 C0 3.66 0 4.32 0 5 C-0.99 5.33 -1.98 5.66 -3 6 C-3.33 6.99 -3.66 7.98 -4 9 C-7.3 9.66 -10.6 10.32 -14 11 C-14 10.34 -14 9.68 -14 9 C-14.99 9 -15.98 9 -17 9 C-16.67 8.34 -16.34 7.68 -16 7 C-15.34 7.33 -14.68 7.66 -14 8 C-14 6.68 -14 5.36 -14 4 C-13.34 4 -12.68 4 -12 4 C-12.33 5.65 -12.66 7.3 -13 9 C-12.236875 8.835 -11.47375 8.67 -10.6875 8.5 C-8 8 -8 8 -5 8 C-5 6.68 -5 5.36 -5 4 C-4.360625 3.71125 -3.72125 3.4225 -3.0625 3.125 C-0.84793921 2.17176549 -0.84793921 2.17176549 0 0 Z " fill="#423C56" transform="translate(17,117)"/>
<path d="M0 0 C0.66 0.33 1.32 0.66 2 1 C1.3125 3.4375 1.3125 3.4375 0 6 C-3.28928478 7.1807689 -4.65284689 7.1157177 -8 6 C-8 6.99 -8 7.98 -8 9 C-5.36 9 -2.72 9 0 9 C0.33 10.32 0.66 11.64 1 13 C0.34 13 -0.32 13 -1 13 C-1.33 13.99 -1.66 14.98 -2 16 C-8.1105424 16.11269443 -13.95170514 15.89604368 -20 15 C-17.37801226 12.84622436 -15.35595828 11.59927826 -12 11 C-11.01 12.485 -11.01 12.485 -10 14 C-6.93443402 14.73343428 -6.93443402 14.73343428 -4 15 C-3.67 13.35 -3.34 11.7 -3 10 C-4.98 10 -6.96 10 -9 10 C-9 8.35 -9 6.7 -9 5 C-8.2575 4.9175 -7.515 4.835 -6.75 4.75 C-3.48778646 3.8603054 -2.19045122 2.51496251 0 0 Z " fill="#8D81BC" transform="translate(166,117)"/>
<path d="M0 0 C1.32 0.33 2.64 0.66 4 1 C3.67 1.9075 3.34 2.815 3 3.75 C1.80394277 7.07045807 1.80394277 7.07045807 2 11 C3.32 10.67 4.64 10.34 6 10 C5.34 12.31 4.68 14.62 4 17 C7.37705625 16.46274105 10.696686 15.88935377 14 15 C14 15.66 14 16.32 14 17 C10.55166676 19.05257931 8.68338409 20.0632763 4.625 19.6875 C3.75875 19.460625 2.8925 19.23375 2 19 C2 18.01 2 17.02 2 16 C0.68 15.67 -0.64 15.34 -2 15 C-1.67 12.03 -1.34 9.06 -1 6 C-1.66 5.67 -2.32 5.34 -3 5 C-2.34 4.67 -1.68 4.34 -1 4 C-0.34786708 1.97536745 -0.34786708 1.97536745 0 0 Z " fill="#4A4365" transform="translate(117,110)"/>
<path d="M0 0 C0.99 0.33 1.98 0.66 3 1 C3 1.99 3 2.98 3 4 C4.65 3.67 6.3 3.34 8 3 C9 6 9 6 8 10 C11.3 10.66 14.6 11.32 18 12 C18 12.33 18 12.66 18 13 C15.93690624 12.88521587 13.87451646 12.75773802 11.8125 12.625 C10.66394531 12.55539063 9.51539062 12.48578125 8.33203125 12.4140625 C5.20040883 12.02490426 2.84714191 11.3190149 0 10 C-1.125 3.375 -1.125 3.375 0 0 Z " fill="#2C2845" transform="translate(118,134)"/>
<path d="M0 0 C0.99 0 1.98 0 3 0 C3.125 6.75 3.125 6.75 2 9 C3.32 9.33 4.64 9.66 6 10 C6 11.32 6 12.64 6 14 C1.545 15.485 1.545 15.485 -3 17 C-2.67 15.68 -2.34 14.36 -2 13 C-1.01 12.67 -0.02 12.34 1 12 C0.34 11.67 -0.32 11.34 -1 11 C-0.67 9.68 -0.34 8.36 0 7 C-1.98 6.34 -3.96 5.68 -6 5 C-5.34 3.68 -4.68 2.36 -4 1 C-3.01 1.66 -2.02 2.32 -1 3 C-0.67 2.01 -0.34 1.02 0 0 Z " fill="#1F1E2F" transform="translate(113,116)"/>
<path d="M0 0 C2.12472576 -0.05386629 4.24983652 -0.09273071 6.375 -0.125 C7.55835938 -0.14820313 8.74171875 -0.17140625 9.9609375 -0.1953125 C13 0 13 0 15 2 C14.9765625 4.1640625 14.9765625 4.1640625 14.625 6.625 C14.45871094 7.85089844 14.45871094 7.85089844 14.2890625 9.1015625 C14.14597656 10.04128906 14.14597656 10.04128906 14 11 C12.02 11 10.04 11 8 11 C8.33 8.36 8.66 5.72 9 3 C6.03 2.67 3.06 2.34 0 2 C0 1.34 0 0.68 0 0 Z " fill="#070307" transform="translate(136,156)"/>
<path d="M0 0 C0 0.66 0 1.32 0 2 C-3.31178954 2.34064639 -6.62452037 2.67114622 -9.9375 3 C-10.86369141 3.09539062 -11.78988281 3.19078125 -12.74414062 3.2890625 C-28.71308773 4.85794151 -28.71308773 4.85794151 -33 2 C-10.93444407 -1.61327863 -10.93444407 -1.61327863 0 0 Z " fill="#423E70" transform="translate(112,62)"/>
<path d="M0 0 C1.32 0 2.64 0 4 0 C4.66 0.99 5.32 1.98 6 3 C6.99 3.33 7.98 3.66 9 4 C8.1875 5.9375 8.1875 5.9375 7 8 C6.01 8.33 5.02 8.66 4 9 C3.67 9.66 3.34 10.32 3 11 C1.35 11 -0.3 11 -2 11 C-2.05399736 9.54207116 -2.09279177 8.08357288 -2.125 6.625 C-2.15980469 5.40683594 -2.15980469 5.40683594 -2.1953125 4.1640625 C-2 2 -2 2 0 0 Z " fill="#A899CA" transform="translate(170,117)"/>
<path d="M0 0 C1.52519276 0.08937803 3.04681929 0.24537146 4.5625 0.4375 C5.80193359 0.59025391 5.80193359 0.59025391 7.06640625 0.74609375 C7.70449219 0.82988281 8.34257812 0.91367188 9 1 C9 3.64 9 6.28 9 9 C6.03 9 3.06 9 0 9 C-0.87890625 2.84765625 -0.87890625 2.84765625 -1 1 C-0.67 0.67 -0.34 0.34 0 0 Z " fill="#201629" transform="translate(183,161)"/>
<path d="M0 0 C1.98 0 3.96 0 6 0 C2.17958771 5.2338249 -0.43251199 7.66217837 -7 9 C-7.70125 9.391875 -8.4025 9.78375 -9.125 10.1875 C-11.71986898 11.31194322 -13.33336215 10.77192148 -16 10 C-16.66 9.67 -17.32 9.34 -18 9 C-15.49862101 5.91552928 -13.36019788 5.41954725 -9.5 4.8125 C-8.5409375 4.65394531 -7.581875 4.49539062 -6.59375 4.33203125 C-4 4 -4 4 -1 4 C-0.67 2.68 -0.34 1.36 0 0 Z " fill="#8787D1" transform="translate(177,0)"/>
<path d="M0 0 C0.99 0.66 1.98 1.32 3 2 C1.02 2.99 1.02 2.99 -1 4 C-1 6.97 -1 9.94 -1 13 C-1.7425 13.12375 -2.485 13.2475 -3.25 13.375 C-5.94309379 13.84100068 -5.94309379 13.84100068 -7.84765625 15.0859375 C-10.64689398 16.27472448 -12.24228355 15.89385825 -15.1875 15.25 C-16.06792969 15.06953125 -16.94835938 14.8890625 -17.85546875 14.703125 C-18.91701172 14.35507812 -18.91701172 14.35507812 -20 14 C-20.33 13.34 -20.66 12.68 -21 12 C-16.80902039 11.40128863 -12.79808986 10.93872564 -8.5625 11 C-7.386875 11 -6.21125 11 -5 11 C-4.67 10.67 -4.34 10.34 -4 10 C-4.061875 8.88625 -4.12375 7.7725 -4.1875 6.625 C-4 3 -4 3 -2 1.0625 C-1.34 0.711875 -0.68 0.36125 0 0 Z " fill="#8787D1" transform="translate(63,19)"/>
<path d="M0 0 C1.32 0.33 2.64 0.66 4 1 C3.01 1.33 2.02 1.66 1 2 C1 3.65 1 5.3 1 7 C1.66 7.33 2.32 7.66 3 8 C2.25 14.75 2.25 14.75 0 17 C-2.09375 17.23046875 -2.09375 17.23046875 -4.5 17.1875 C-5.2940625 17.18105469 -6.088125 17.17460937 -6.90625 17.16796875 C-9 17 -9 17 -11 16 C-11 16.99 -11 17.98 -11 19 C-11.66 19 -12.32 19 -13 19 C-13 17.35 -13 15.7 -13 14 C-10.03 14.33 -7.06 14.66 -4 15 C-3.67 13.68 -3.34 12.36 -3 11 C-2.01 11 -1.02 11 0 11 C-0.66 9.02 -1.32 7.04 -2 5 C-1.34 5 -0.68 5 0 5 C0 3.35 0 1.7 0 0 Z " fill="#3E3955" transform="translate(47,113)"/>
<path d="M0 0 C0.33 0 0.66 0 1 0 C1 4.62 1 9.24 1 14 C0.67 14 0.34 14 0 14 C0 11.03 0 8.06 0 5 C-7.26 5 -14.52 5 -22 5 C-22 4.34 -22 3.68 -22 3 C-22.99 2.67 -23.98 2.34 -25 2 C-24 1 -24 1 -21.4375 0.9375 C-20.2309375 0.9684375 -20.2309375 0.9684375 -19 1 C-18.67 1.99 -18.34 2.98 -18 4 C-17.35933594 3.855625 -16.71867187 3.71125 -16.05859375 3.5625 C-10.91959623 2.45964509 -6.25304157 1.77160689 -1 2 C-0.67 1.34 -0.34 0.68 0 0 Z " fill="#7069A6" transform="translate(62,82)"/>
<path d="M0 0 C0.66 0 1.32 0 2 0 C4.18382353 5.33823529 4.18382353 5.33823529 3.375 8.25 C1.78365061 10.27535377 0.37239812 11.05104075 -2 12 C-2 11.01 -2 10.02 -2 9 C-3.32 9 -4.64 9 -6 9 C-6 7.02 -6 5.04 -6 3 C-4.35 3 -2.7 3 -1 3 C-0.67 2.01 -0.34 1.02 0 0 Z " fill="#15131F" transform="translate(134,155)"/>
<path d="M0 0 C1.65 0 3.3 0 5 0 C5.33 0.99 5.66 1.98 6 3 C6.99 2.67 7.98 2.34 9 2 C9 4.31 9 6.62 9 9 C7.88625 8.690625 7.88625 8.690625 6.75 8.375 C3.67669159 7.95591249 2.57213134 8.38050989 0 10 C-1.60339848 6.88228073 -2.18974141 5.60988311 -1.125 2.1875 C-0.75375 1.465625 -0.3825 0.74375 0 0 Z " fill="#1B1727" transform="translate(183,177)"/>
<path d="M0 0 C0.33 0 0.66 0 1 0 C1 6.6 1 13.2 1 20 C0.34 19.34 -0.32 18.68 -1 18 C-3.60280568 18.32041397 -3.60280568 18.32041397 -6 19 C-6 19.66 -6 20.32 -6 21 C-6.66 21.33 -7.32 21.66 -8 22 C-8.33 22.99 -8.66 23.98 -9 25 C-9.99 25 -10.98 25 -12 25 C-11.34 23.35 -10.68 21.7 -10 20 C-9.34 20 -8.68 20 -8 20 C-8.33 18.68 -8.66 17.36 -9 16 C-6.69 16 -4.38 16 -2 16 C-1.34 10.72 -0.68 5.44 0 0 Z " fill="#5F5984" transform="translate(63,92)"/>
<path d="M0 0 C2.31 0 4.62 0 7 0 C7 0.99 7 1.98 7 3 C6.01 3 5.02 3 4 3 C4.33 4.98 4.66 6.96 5 9 C3.35 9.66 1.7 10.32 0 11 C-1.5 9.75 -1.5 9.75 -3 8 C-3 6.68 -3 5.36 -3 4 C-2.01 3.67 -1.02 3.34 0 3 C0 2.01 0 1.02 0 0 Z " fill="#312F48" transform="translate(78,105)"/>
<path d="M0 0 C4.875 1.75 4.875 1.75 6 4 C7.65 3.67 9.3 3.34 11 3 C11 4.65 11 6.3 11 8 C9.68 7.67 8.36 7.34 7 7 C6.7525 7.5775 6.505 8.155 6.25 8.75 C4.83316683 11.3002997 3.12372463 13.01785701 1 15 C0.01 14.67 -0.98 14.34 -2 14 C-1.34 12.35 -0.68 10.7 0 9 C1.32 9 2.64 9 4 9 C3.67 6.69 3.34 4.38 3 2 C1.35 2 -0.3 2 -2 2 C-1.34 1.34 -0.68 0.68 0 0 Z " fill="#69618E" transform="translate(111,104)"/>
<path d="M0 0 C0.66 1.32 1.32 2.64 2 4 C0.68 4.33 -0.64 4.66 -2 5 C-0.87548273 7.9719385 0.22293791 10.33440687 2 13 C0.68 12.67 -0.64 12.34 -2 12 C-1.67 12.99 -1.34 13.98 -1 15 C-2.32 15 -3.64 15 -5 15 C-5 14.34 -5 13.68 -5 13 C-6.32 13.33 -7.64 13.66 -9 14 C-10.32 12.02 -11.64 10.04 -13 8 C-8.25 8.875 -8.25 8.875 -6 10 C-6 10.66 -6 11.32 -6 12 C-5.34 12 -4.68 12 -4 12 C-3.87882812 11.30132812 -3.75765625 10.60265625 -3.6328125 9.8828125 C-3.46523437 8.97273438 -3.29765625 8.06265625 -3.125 7.125 C-2.96257812 6.22007813 -2.80015625 5.31515625 -2.6328125 4.3828125 C-2 2 -2 2 0 0 Z " fill="#60587E" transform="translate(77,104)"/>
<path d="M0 0 C1.65 0.33 3.3 0.66 5 1 C5 1.66 5 2.32 5 3 C5.99 3 6.98 3 8 3 C8 3.99 8 4.98 8 6 C9.32 6.66 10.64 7.32 12 8 C11.67 8.66 11.34 9.32 11 10 C10.01 10 9.02 10 8 10 C8 9.01 8 8.02 8 7 C6.35 7.33 4.7 7.66 3 8 C3 7.34 3 6.68 3 6 C2.01 6.33 1.02 6.66 0 7 C-1.5 5.625 -1.5 5.625 -3 4 C-3 3.34 -3 2.68 -3 2 C-2.01 2 -1.02 2 0 2 C0 1.34 0 0.68 0 0 Z " fill="#454162" transform="translate(91,99)"/>
<path d="M0 0 C3 1 3 1 4 3 C4.33 2.01 4.66 1.02 5 0 C5.99 0 6.98 0 8 0 C8 0.66 8 1.32 8 2 C7.34 2 6.68 2 6 2 C6 3.32 6 4.64 6 6 C4.8553125 6.1546875 4.8553125 6.1546875 3.6875 6.3125 C0.82940576 7.04364039 -0.15742885 7.76951913 -2 10 C-2.66 9.67 -3.32 9.34 -4 9 C-4.625 6.4375 -4.625 6.4375 -5 4 C-3.68 4 -2.36 4 -1 4 C-0.67 2.68 -0.34 1.36 0 0 Z " fill="#4C487D" transform="translate(79,86)"/>
<path d="M0 0 C3.96 0 7.92 0 12 0 C12 0.66 12 1.32 12 2 C13.32 2.33 14.64 2.66 16 3 C16 4.65 16 6.3 16 8 C15.319375 7.154375 14.63875 6.30875 13.9375 5.4375 C11.16977027 2.58081788 11.16977027 2.58081788 7.375 3.1875 C5.704375 3.5896875 5.704375 3.5896875 4 4 C2 4 0 4 -2 4 C-1.34 2.68 -0.68 1.36 0 0 Z " fill="#907CBE" transform="translate(176,45)"/>
<path d="M0 0 C1.98 0.495 1.98 0.495 4 1 C4.36256858 2.4562672 4.71479793 3.91511185 5.0625 5.375 C5.35833984 6.59316406 5.35833984 6.59316406 5.66015625 7.8359375 C6 10 6 10 5 12 C3.02 12 1.04 12 -1 12 C-1.25 6.375 -1.25 6.375 1 3 C0.34 2.67 -0.32 2.34 -1 2 C-0.67 1.34 -0.34 0.68 0 0 Z " fill="#0D0F2C" transform="translate(146,176)"/>
<path d="M0 0 C-1.375 2 -1.375 2 -3 4 C-3.66 4 -4.32 4 -5 4 C-5.66 5.32 -6.32 6.64 -7 8 C-8.65 7.67 -10.3 7.34 -12 7 C-11.05208357 3.81155382 -10.30234667 2.24514595 -7.6875 0.125 C-4.58832651 -1.17232844 -3.15645305 -0.9920281 0 0 Z " fill="#A097D0" transform="translate(184,93)"/>
<path d="M0 0 C0.99 0.33 1.98 0.66 3 1 C4.08166759 3.41295078 4.10258364 4.64095726 3.375 7.1875 C2 9 2 9 -0.625 9.75 C-1.40875 9.8325 -2.1925 9.915 -3 10 C-3.66 8.68 -4.32 7.36 -5 6 C-3.35 4.02 -1.7 2.04 0 0 Z " fill="#16151F" transform="translate(92,137)"/>
<path d="M0 0 C0.66 0 1.32 0 2 0 C6 4.47058824 6 4.47058824 6 7 C5.34 7 4.68 7 4 7 C4 7.66 4 8.32 4 9 C3.01 9.495 3.01 9.495 2 10 C1.67 10.99 1.34 11.98 1 13 C0.34 13 -0.32 13 -1 13 C-1.02696365 11.20841511 -1.04637917 9.41671527 -1.0625 7.625 C-1.07410156 6.62726563 -1.08570313 5.62953125 -1.09765625 4.6015625 C-1 2 -1 2 0 0 Z " fill="#1F1D2C" transform="translate(64,119)"/>
<path d="M0 0 C0 0.99 0 1.98 0 3 C4.455 2.505 4.455 2.505 9 2 C2.26007349 5.36996325 -3.61120482 6.57208408 -11 5 C-7.48882191 1.48882191 -5.02607198 0 0 0 Z " fill="#947FBA" transform="translate(148,136)"/>
<path d="M0 0 C0 1.98 0 3.96 0 6 C0.66 6 1.32 6 2 6 C2 7.32 2 8.64 2 10 C2.66 10.33 3.32 10.66 4 11 C2.68 11.99 1.36 12.98 0 14 C0 12.02 0 10.04 0 8 C-1.65 8.33 -3.3 8.66 -5 9 C-5.25 6.75 -5.25 6.75 -5 4 C-1.64864865 0 -1.64864865 0 0 0 Z " fill="#73658C" transform="translate(126,129)"/>
<path d="M0 0 C0.66 0 1.32 0 2 0 C2 1.32 2 2.64 2 4 C2.99 4 3.98 4 5 4 C5 4.66 5 5.32 5 6 C3.35 5.67 1.7 5.34 0 5 C-0.33 5.99 -0.66 6.98 -1 8 C-1.66 8 -2.32 8 -3 8 C-3 8.66 -3 9.32 -3 10 C-3.99 9.67 -4.98 9.34 -6 9 C-6.33 7.02 -6.66 5.04 -7 3 C-4.525 3.495 -4.525 3.495 -2 4 C-1.34 2.68 -0.68 1.36 0 0 Z " fill="#272434" transform="translate(76,124)"/>
<path d="M0 0 C2.33944736 0.28730055 4.6739143 0.61936779 7 1 C7 4.3 7 7.6 7 11 C6.01 10.67 5.02 10.34 4 10 C3.01 11.485 3.01 11.485 2 13 C1.67 11.35 1.34 9.7 1 8 C1.66 8 2.32 8 3 8 C3 6.02 3 4.04 3 2 C1.68 1.67 0.36 1.34 -1 1 C-0.67 0.67 -0.34 0.34 0 0 Z " fill="#191119" transform="translate(165,170)"/>
<path d="M0 0 C2.31 0 4.62 0 7 0 C8 3 8 3 7 6 C6.34 6 5.68 6 5 6 C5 7.32 5 8.64 5 10 C7.31 10 9.62 10 12 10 C10.71034824 11.37562854 9.37310707 12.70766393 8 14 C7.34 14 6.68 14 6 14 C6 13.01 6 12.02 6 11 C5.34 11 4.68 11 4 11 C3.67 7.7 3.34 4.4 3 1 C2.01 0.67 1.02 0.34 0 0 Z " fill="#1A1925" transform="translate(40,129)"/>
<path d="M0 0 C0.99 0.33 1.98 0.66 3 1 C2.2884375 1.6496875 2.2884375 1.6496875 1.5625 2.3125 C-0.23686957 4.02309613 -0.23686957 4.02309613 -1 7 C-0.34 6.67 0.32 6.34 1 6 C1.33 7.32 1.66 8.64 2 10 C-0.64 10.99 -3.28 11.98 -6 13 C-6 11.02 -6 9.04 -6 7 C-5.360625 6.7525 -4.72125 6.505 -4.0625 6.25 C-1.81723287 5.19352316 -1.81723287 5.19352316 -1.3125 2.9375 C-1.1578125 1.9784375 -1.1578125 1.9784375 -1 1 C-0.67 0.67 -0.34 0.34 0 0 Z " fill="#8C84C2" transform="translate(131,101)"/>
<path d="M0 0 C1.32 0 2.64 0 4 0 C4.33 2.31 4.66 4.62 5 7 C3.68 7.33 2.36 7.66 1 8 C1 7.34 1 6.68 1 6 C0.01 6 -0.98 6 -2 6 C-1.125 1.125 -1.125 1.125 0 0 Z " fill="#171723" transform="translate(80,122)"/>
<path d="M0 0 C0.33 0.99 0.66 1.98 1 3 C-1.60444348 3.05394705 -4.20776998 3.09364469 -6.8125 3.125 C-7.55048828 3.14175781 -8.28847656 3.15851563 -9.04882812 3.17578125 C-12.91246426 3.21074628 -14.70903668 3.19397555 -18 1 C-11.96445452 0.30739642 -6.07593562 -0.11251733 0 0 Z " fill="#504C83" transform="translate(154,114)"/>
<path d="M0 0 C0.99 0.33 1.98 0.66 3 1 C1.68 1.33 0.36 1.66 -1 2 C-1 2.66 -1 3.32 -1 4 C-1.90492188 4.25523438 -1.90492188 4.25523438 -2.828125 4.515625 C-7.51063372 5.93548248 -10.85311149 7.03218406 -14 11 C-14 10.34 -14 9.68 -14 9 C-14.99 9 -15.98 9 -17 9 C-17 8.34 -17 7.68 -17 7 C-13.6932738 5.14500725 -11.15746993 4.02171999 -7.375 3.5 C-3.84641744 2.97724703 -2.71119817 2.13022713 0 0 Z " fill="#8F84C2" transform="translate(189,84)"/>
<path d="M0 0 C1.77074917 -0.02705729 3.54161711 -0.04642195 5.3125 -0.0625 C6.29863281 -0.07410156 7.28476562 -0.08570312 8.30078125 -0.09765625 C11 0 11 0 14 1 C14.33 2.98 14.66 4.96 15 7 C15.99 7 16.98 7 18 7 C18 7.66 18 8.32 18 9 C16.35 9 14.7 9 13 9 C12.4465236 6.92446352 12 5.15634036 12 3 C11.30132812 3.03480469 10.60265625 3.06960937 9.8828125 3.10546875 C8.51769531 3.14607422 8.51769531 3.14607422 7.125 3.1875 C5.76761719 3.23970703 5.76761719 3.23970703 4.3828125 3.29296875 C3.20332031 3.14794922 3.20332031 3.14794922 2 3 C1.34 2.01 0.68 1.02 0 0 Z " fill="#8786CF" transform="translate(14,20)"/>
<path d="M0 0 C0 0.33 0 0.66 0 1 C-2.26999825 1.50377768 -4.54103003 2.00290019 -6.8125 2.5 C-8.70935547 2.91765625 -8.70935547 2.91765625 -10.64453125 3.34375 C-14 4 -14 4 -17 4 C-17 5.32 -17 6.64 -17 8 C-18.98 8.33 -20.96 8.66 -23 9 C-22.34 8.34 -21.68 7.68 -21 7 C-20.01 7 -19.02 7 -18 7 C-18 6.01 -18 5.02 -18 4 C-18.66 3.67 -19.32 3.34 -20 3 C-14.14538009 -0.65913745 -6.66195317 -0.11896345 0 0 Z " fill="#897DB4" transform="translate(149,120)"/>
<path d="M0 0 C0.86625 0.37125 0.86625 0.37125 1.75 0.75 C1.75 1.74 1.75 2.73 1.75 3.75 C0.43 4.08 -0.89 4.41 -2.25 4.75 C-2.25 5.74 -2.25 6.73 -2.25 7.75 C-3.24 7.75 -4.23 7.75 -5.25 7.75 C-5.91 8.41 -6.57 9.07 -7.25 9.75 C-6.9314443 6.24588735 -6.55932553 4.1659895 -4.4375 1.3125 C-2.25 -0.25 -2.25 -0.25 0 0 Z " fill="#11111B" transform="translate(56.25,120.25)"/>
<path d="M0 0 C1.65 0 3.3 0 5 0 C5.33 1.65 5.66 3.3 6 5 C3 7 3 7 0.3125 6.625 C-0.450625 6.41875 -1.21375 6.2125 -2 6 C-1.34 4.02 -0.68 2.04 0 0 Z " fill="#151320" transform="translate(174,177)"/>
<path d="M0 0 C2.83339965 -0.02724423 5.66653117 -0.04695589 8.5 -0.0625 C9.29148438 -0.07087891 10.08296875 -0.07925781 10.8984375 -0.08789062 C16.02761717 -0.10891185 20.92336106 0.26062713 26 1 C26 1.33 26 1.66 26 2 C24.329375 2.2165625 24.329375 2.2165625 22.625 2.4375 C19.17857953 2.78372035 19.17857953 2.78372035 17 4 C14.875 3.5625 14.875 3.5625 13 3 C13 2.34 13 1.68 13 1 C8.71 1 4.42 1 0 1 C0 0.67 0 0.34 0 0 Z " fill="#2E1F39" transform="translate(166,149)"/>
<path d="M0 0 C0.99 0 1.98 0 3 0 C3 0.66 3 1.32 3 2 C3.66 2 4.32 2 5 2 C4.34 3.98 3.68 5.96 3 8 C1.35 7.67 -0.3 7.34 -2 7 C-2 5.68 -2 4.36 -2 3 C-1.34 3 -0.68 3 0 3 C0 2.01 0 1.02 0 0 Z " fill="#433B55" transform="translate(47,132)"/>
<path d="M0 0 C0 1.65 0 3.3 0 5 C-1.32 5 -2.64 5 -4 5 C-4 5.66 -4 6.32 -4 7 C-5.32 7.33 -6.64 7.66 -8 8 C-7.67 6.35 -7.34 4.7 -7 3 C-6.34 3 -5.68 3 -5 3 C-5 2.34 -5 1.68 -5 1 C-3 0 -3 0 0 0 Z " fill="#2A293F" transform="translate(62,110)"/>
<path d="M0 0 C2.97 0.495 2.97 0.495 6 1 C6 2.32 6 3.64 6 5 C1.545 6.485 1.545 6.485 -3 8 C-2.67 6.68 -2.34 5.36 -2 4 C-1.01 3.67 -0.02 3.34 1 3 C0.67 2.01 0.34 1.02 0 0 Z " fill="#2C2A3D" transform="translate(113,125)"/>
<path d="M0 0 C2.00720923 0.28674418 4.0085944 0.61866701 6 1 C6.33 3.31 6.66 5.62 7 8 C6.01 8 5.02 8 4 8 C4 6.35 4 4.7 4 3 C3.34 3 2.68 3 2 3 C1.67 4.32 1.34 5.64 1 7 C-0.32 6.67 -1.64 6.34 -3 6 C-2.34 6 -1.68 6 -1 6 C-1.0309375 4.7934375 -1.0309375 4.7934375 -1.0625 3.5625 C-1 1 -1 1 0 0 Z " fill="#3B3856" transform="translate(108,105)"/>
<path d="M0 0 C0 0.66 0 1.32 0 2 C-6.27 2 -12.54 2 -19 2 C-19 1.67 -19 1.34 -19 1 C-12.26718787 -0.700773 -6.86747109 -1.10765663 0 0 Z " fill="#2F2B52" transform="translate(112,62)"/>
<path d="M0 0 C-4 2 -4 2 -6 2.875 C-8.42885973 4.2412336 -10.1067513 5.97151925 -12 8 C-12.33 7.34 -12.66 6.68 -13 6 C-13.66 6 -14.32 6 -15 6 C-15 5.01 -15 4.02 -15 3 C-13.44033782 2.491217 -11.87710759 1.99336531 -10.3125 1.5 C-9.44238281 1.2215625 -8.57226562 0.943125 -7.67578125 0.65625 C-5.00608323 0.00149195 -2.73603316 -0.11831495 0 0 Z " fill="#393660" transform="translate(139,116)"/>
<path d="M0 0 C1.2065625 0.0309375 1.2065625 0.0309375 2.4375 0.0625 C2.4375 2.0425 2.4375 4.0225 2.4375 6.0625 C0.7875 6.0625 -0.8625 6.0625 -2.5625 6.0625 C-2.94468767 4.40635343 -3.27645102 2.73792976 -3.5625 1.0625 C-2.5625 0.0625 -2.5625 0.0625 0 0 Z " fill="#2E2844" transform="translate(185.5625,176.9375)"/>
<path d="M0 0 C2.31 0.33 4.62 0.66 7 1 C6.01 2.98 5.02 4.96 4 7 C2.68 7 1.36 7 0 7 C0 4.69 0 2.38 0 0 Z " fill="#2B2339" transform="translate(174,160)"/>
<path d="M0 0 C2.99324263 1.0975223 3.84610901 1.67682892 5.25 4.625 C5.4975 5.40875 5.745 6.1925 6 7 C4.02 7.33 2.04 7.66 0 8 C-0.38063221 5.6739143 -0.71269945 3.33944736 -1 1 C-0.67 0.67 -0.34 0.34 0 0 Z " fill="#5D5883" transform="translate(85,94)"/>
<path d="M0 0 C3.63 0.66 7.26 1.32 11 2 C10.34 3.32 9.68 4.64 9 6 C6.69 6 4.38 6 2 6 C2.66 5.34 3.32 4.68 4 4 C3.34 3.67 2.68 3.34 2 3 C2 2.34 2 1.68 2 1 C1.34 0.67 0.68 0.34 0 0 Z " fill="#807FCA" transform="translate(72,40)"/>
<path d="M0 0 C2.5625 0.75 2.5625 0.75 4.5 1.75 C7.13402412 3.0271026 9.67734648 3.35656997 12.5625 3.75 C12.5625 4.08 12.5625 4.41 12.5625 4.75 C10.49940624 4.63521587 8.43701646 4.50773802 6.375 4.375 C5.22644531 4.30539063 4.07789062 4.23578125 2.89453125 4.1640625 C-0.23709117 3.77490426 -2.59035809 3.0690149 -5.4375 1.75 C-2.4375 -0.25 -2.4375 -0.25 0 0 Z " fill="#3E3A64" transform="translate(123.4375,142.25)"/>
<path d="M0 0 C3 1 3 1 4 3 C4.33 2.01 4.66 1.02 5 0 C5.66 0.33 6.32 0.66 7 1 C6.67 2.65 6.34 4.3 6 6 C5.34 6 4.68 6 4 6 C4.33 6.99 4.66 7.98 5 9 C3.68 9 2.36 9 1 9 C1.20625 8.2575 1.4125 7.515 1.625 6.75 C2.04408751 3.67669159 1.61949011 2.57213134 0 0 Z " fill="#635981" transform="translate(41,112)"/>
<path d="M0 0 C0.66 0 1.32 0 2 0 C2 1.65 2 3.3 2 5 C-1.47111941 6.1570398 -4.22631654 6.03396489 -7.84375 5.9375 C-10.18574877 5.90157821 -10.18574877 5.90157821 -13 7 C-13.33 6.01 -13.66 5.02 -14 4 C-9.38 4 -4.76 4 0 4 C0 2.68 0 1.36 0 0 Z " fill="#281C33" transform="translate(164,144)"/>
<path d="M0 0 C1.32 0 2.64 0 4 0 C4.33 0.99 4.66 1.98 5 3 C4.01 3.66 3.02 4.32 2 5 C2.66 5.66 3.32 6.32 4 7 C3.34 7 2.68 7 2 7 C2 7.66 2 8.32 2 9 C1.34 9 0.68 9 0 9 C-1.125 2.25 -1.125 2.25 0 0 Z " fill="#13131E" transform="translate(106,132)"/>
<path d="M0 0 C1.09658936 3.28976808 0.79953138 4.71303767 0 8 C-2.31 7.67 -4.62 7.34 -7 7 C-6.67 6.01 -6.34 5.02 -6 4 C-4.66923011 3.65657551 -3.33568021 3.32380126 -2 3 C-1.34 2.01 -0.68 1.02 0 0 Z " fill="#151521" transform="translate(108,114)"/>
<path d="M0 0 C0.66 0.33 1.32 0.66 2 1 C2 1.66 2 2.32 2 3 C2.99 3 3.98 3 5 3 C5.66 4.98 6.32 6.96 7 9 C6.34 9 5.68 9 5 9 C5 8.34 5 7.68 5 7 C2.69 6.34 0.38 5.68 -2 5 C-1.34 3.35 -0.68 1.7 0 0 Z " fill="#887DAC" transform="translate(66,107)"/>
<path d="M0 0 C0.66 0.66 1.32 1.32 2 2 C0.13497412 4.62799102 -1.30410791 5.86365751 -4.4921875 6.48828125 C-6.9964272 6.72593573 -9.48653979 6.9040664 -12 7 C-8.09670598 3.79121099 -4.87954811 3.05723542 0 2 C0 1.34 0 0.68 0 0 Z " fill="#8686CE" transform="translate(34,38)"/>
<path d="M0 0 C-0.75 2.4375 -0.75 2.4375 -2 5 C-4.125 5.8125 -4.125 5.8125 -6 6 C-5.01 4.68 -4.02 3.36 -3 2 C-3.99 2.495 -3.99 2.495 -5 3 C-7.3329866 3.04022391 -9.66706666 3.04320247 -12 3 C-12 2.67 -12 2.34 -12 2 C-7.8803623 0.70756464 -4.33168317 -0.26252625 0 0 Z " fill="#978BC3" transform="translate(147,121)"/>
<path d="M0 0 C2.475 0.495 2.475 0.495 5 1 C5 1.66 5 2.32 5 3 C5.99 2.67 6.98 2.34 8 2 C8 1.34 8 0.68 8 0 C9.32 0.66 10.64 1.32 12 2 C11.34 2 10.68 2 10 2 C9.67 3.32 9.34 4.64 9 6 C8.67 5.34 8.34 4.68 8 4 C6.68 4.33 5.36 4.66 4 5 C4 4.34 4 3.68 4 3 C2.68 3 1.36 3 0 3 C0 2.01 0 1.02 0 0 Z " fill="#35324B" transform="translate(67,116)"/>
<path d="M0 0 C1.41687119 4.25061356 0.19320039 6.71851625 -1 11 C-2.65 10.67 -4.3 10.34 -6 10 C-5.34 9.67 -4.68 9.34 -4 9 C-3.30741771 7.00882592 -2.64252365 5.0078864 -2 3 C-1.34 2.01 -0.68 1.02 0 0 Z " fill="#2D2B44" transform="translate(106,100)"/>
<path d="M0 0 C2.31 0 4.62 0 7 0 C7 1.65 7 3.3 7 5 C6.01 5.33 5.02 5.66 4 6 C4 5.01 4 4.02 4 3 C3.01 3 2.02 3 1 3 C0.67 2.01 0.34 1.02 0 0 Z " fill="#2F2D47" transform="translate(95,99)"/>
<path d="M0 0 C-1.7664657 1.0076952 -3.53833823 2.00591714 -5.3125 3 C-6.79169922 3.8353125 -6.79169922 3.8353125 -8.30078125 4.6875 C-11 6 -11 6 -14 6 C-13.09325024 5.01164277 -12.17410978 4.03464519 -11.25 3.0625 C-10.73953125 2.51722656 -10.2290625 1.97195312 -9.703125 1.41015625 C-6.48217212 -1.25673363 -3.88279321 -1.24804067 0 0 Z " fill="#2E2D57" transform="translate(82,66)"/>
<path d="M0 0 C3.63 0 7.26 0 11 0 C9.515 1.485 9.515 1.485 8 3 C6.32577014 2.70700977 4.65821773 2.37309899 3 2 C2.01 2.66 1.02 3.32 0 4 C0 2.68 0 1.36 0 0 Z " fill="#9E83C1" transform="translate(175,46)"/>
<path d="M0 0 C0 0.33 0 0.66 0 1 C-1.0725 1.2475 -2.145 1.495 -3.25 1.75 C-6.99649437 2.99883146 -8.52073882 4.02488658 -11 7 C-11.66 6.67 -12.32 6.34 -13 6 C-7.03594249 -1.37659744 -7.03594249 -1.37659744 0 0 Z " fill="#8685CF" transform="translate(154,7)"/>
<path d="M0 0 C2.475 0.495 2.475 0.495 5 1 C5.33 2.65 5.66 4.3 6 6 C4.35 6.33 2.7 6.66 1 7 C0.67 4.69 0.34 2.38 0 0 Z " fill="#8178AA" transform="translate(107,98)"/>
<path d="M0 0 C0.33 0 0.66 0 1 0 C1 2.64 1 5.28 1 8 C0.01 8.33 -0.98 8.66 -2 9 C-2.66 7.02 -3.32 5.04 -4 3 C-2.68 3 -1.36 3 0 3 C0 2.01 0 1.02 0 0 Z " fill="#5B568C" transform="translate(78,87)"/>
<path d="M0 0 C0.103125 0.639375 0.20625 1.27875 0.3125 1.9375 C0.539375 2.618125 0.76625 3.29875 1 4 C1.99 4.33 2.98 4.66 4 5 C4 5.66 4 6.32 4 7 C4.66 7.33 5.32 7.66 6 8 C4.68 8.99 3.36 9.98 2 11 C2 9.02 2 7.04 2 5 C0.35 5.33 -1.3 5.66 -3 6 C-2.67 5.34 -2.34 4.68 -2 4 C-1.34 4 -0.68 4 0 4 C0 2.68 0 1.36 0 0 Z " fill="#51496F" transform="translate(124,132)"/>
<path d="M0 0 C0.99 0 1.98 0 3 0 C3.33 0.66 3.66 1.32 4 2 C4.33 2 4.66 2 5 2 C5 3.65 5 5.3 5 7 C3.68 7 2.36 7 1 7 C0.67 4.69 0.34 2.38 0 0 Z " fill="#29283B" transform="translate(94,109)"/>
<path d="M0 0 C1.98 0 3.96 0 6 0 C6 1.32 6 2.64 6 4 C5.01 4 4.02 4 3 4 C3 5.65 3 7.3 3 9 C2.67 9 2.34 9 2 9 C2 7.35 2 5.7 2 4 C1.34 3.67 0.68 3.34 0 3 C0 2.01 0 1.02 0 0 Z " fill="#1F1F31" transform="translate(90,95)"/>
<path d="M0 0 C7.625 0.875 7.625 0.875 11 2 C11 2.99 11 3.98 11 5 C4.25 4.25 4.25 4.25 2 2 C1.34 2 0.68 2 0 2 C0 1.34 0 0.68 0 0 Z " fill="#8880C1" transform="translate(0,81)"/>
<path d="M0 0 C1.65 0.33 3.3 0.66 5 1 C3.8553125 1.86625 3.8553125 1.86625 2.6875 2.75 C0.33799083 4.71703093 -1.29323505 6.48476744 -3 9 C-3.66 8.67 -4.32 8.34 -5 8 C-3.35 5.36 -1.7 2.72 0 0 Z " fill="#8684CE" transform="translate(7,17)"/>
<path d="M0 0 C2.475 0.495 2.475 0.495 5 1 C5 2.32 5 3.64 5 5 C3.35 5 1.7 5 0 5 C0 3.35 0 1.7 0 0 Z " fill="#48416C" transform="translate(183,164)"/>
<path d="M0 0 C0.33 0.66 0.66 1.32 1 2 C1.99 2 2.98 2 4 2 C4.33 4.31 4.66 6.62 5 9 C5.99 9.33 6.98 9.66 8 10 C6.68 10 5.36 10 4 10 C3.34 8.02 2.68 6.04 2 4 C1.01 4.33 0.02 4.66 -1 5 C-1.33 3.68 -1.66 2.36 -2 1 C-1.34 0.67 -0.68 0.34 0 0 Z " fill="#6F658C" transform="translate(25,119)"/>
<path d="M0 0 C1.98 0 3.96 0 6 0 C4.35 1.98 2.7 3.96 1 6 C0.01 5.67 -0.98 5.34 -2 5 C-1.34 3.35 -0.68 1.7 0 0 Z " fill="#5C5579" transform="translate(111,113)"/>
<path d="M0 0 C0 0.66 0 1.32 0 2 C-3.21451269 3.60725635 -6.43612536 3.05748185 -10 3 C-7.29536552 -0.8183075 -4.37912428 -0.24787496 0 0 Z " fill="#9890CC" transform="translate(163,96)"/>
<path d="M0 0 C0.66 0 1.32 0 2 0 C2.66 1.65 3.32 3.3 4 5 C1.6875 6.125 1.6875 6.125 -1 7 C-1.99 6.34 -2.98 5.68 -4 5 C-2.68 4.67 -1.36 4.34 0 4 C0 2.68 0 1.36 0 0 Z " fill="#2C293D" transform="translate(58,120)"/>
<path d="M0 0 C4.875 1.75 4.875 1.75 6 4 C3.69 4.33 1.38 4.66 -1 5 C-0.67 3.35 -0.34 1.7 0 0 Z " fill="#8377A1" transform="translate(5,121)"/>
<path d="M0 0 C1.32 0.33 2.64 0.66 4 1 C3.34 2.32 2.68 3.64 2 5 C1.34 5 0.68 5 0 5 C0 6.98 0 8.96 0 11 C-0.33 11 -0.66 11 -1 11 C-1 9.35 -1 7.7 -1 6 C-1.66 5.67 -2.32 5.34 -3 5 C-2.34 4.67 -1.68 4.34 -1 4 C-0.34786708 1.97536745 -0.34786708 1.97536745 0 0 Z " fill="#35304C" transform="translate(117,110)"/>
<path d="M0 0 C0.33 0.66 0.66 1.32 1 2 C1.5775 1.649375 2.155 1.29875 2.75 0.9375 C5.35801776 -0.14917407 6.39417629 0.06934867 9 1 C5.79619983 3.13586678 4.98060033 3.23132175 1.3125 3.125 C0.10013672 3.09792969 0.10013672 3.09792969 -1.13671875 3.0703125 C-2.05904297 3.03550781 -2.05904297 3.03550781 -3 3 C-2.01 2.01 -1.02 1.02 0 0 Z " fill="#605B92" transform="translate(125,115)"/>
<path d="M0 0 C0.99 0 1.98 0 3 0 C3.33 0.99 3.66 1.98 4 3 C3.2884375 3.6496875 3.2884375 3.6496875 2.5625 4.3125 C0.76313043 6.02309613 0.76313043 6.02309613 0 9 C-0.99 9 -1.98 9 -3 9 C-2.34 7.35 -1.68 5.7 -1 4 C-0.34 4 0.32 4 1 4 C0.67 2.68 0.34 1.36 0 0 Z " fill="#474263" transform="translate(54,108)"/>
<path d="M0 0 C1.32 0.66 2.64 1.32 4 2 C3.34 2.66 2.68 3.32 2 4 C2 4.99 2 5.98 2 7 C1.34 7 0.68 7 0 7 C-0.33 8.32 -0.66 9.64 -1 11 C-2.31625194 8.36749612 -1.74813658 7.19820944 -1.0625 4.375 C-0.86785156 3.55773437 -0.67320313 2.74046875 -0.47265625 1.8984375 C-0.23869141 0.95871094 -0.23869141 0.95871094 0 0 Z " fill="#7B719E" transform="translate(53,105)"/>
<path d="M0 0 C0.99 0.33 1.98 0.66 3 1 C2.319375 1.5878125 2.319375 1.5878125 1.625 2.1875 C-0.16809237 3.96944965 -0.16809237 3.96944965 -1 6.625 C-1.33 7.40875 -1.66 8.1925 -2 9 C-2.99 9.33 -3.98 9.66 -5 10 C-4.67 8.35 -4.34 6.7 -4 5 C-3.34 5 -2.68 5 -2 5 C-1.7834375 4.0409375 -1.7834375 4.0409375 -1.5625 3.0625 C-1 1 -1 1 0 0 Z " fill="#857EBE" transform="translate(131,101)"/>
<path d="M0 0 C0 0.66 0 1.32 0 2 C-2.31 2.66 -4.62 3.32 -7 4 C-6.625 2.0625 -6.625 2.0625 -6 0 C-3.50907189 -1.24546405 -2.58919267 -0.7767578 0 0 Z " fill="#1C1B2E" transform="translate(91,151)"/>
<path d="M0 0 C0.99 0 1.98 0 3 0 C2.67 2.64 2.34 5.28 2 8 C1.34 8 0.68 8 0 8 C0 5.36 0 2.72 0 0 Z " fill="#302D41" transform="translate(63,124)"/>
<path d="M0 0 C0.66 0 1.32 0 2 0 C1.67 1.65 1.34 3.3 1 5 C0.01 5 -0.98 5 -2 5 C-2.33 5.66 -2.66 6.32 -3 7 C-3.99 6.67 -4.98 6.34 -6 6 C-5.34 6 -4.68 6 -4 6 C-3.67 4.68 -3.34 3.36 -3 2 C-2.01 2 -1.02 2 0 2 C0 1.34 0 0.68 0 0 Z " fill="#1C1B25" transform="translate(17,120)"/>
<path d="M0 0 C3.68754757 0.49831724 5.60490662 1.10067643 8 4 C6.02 4.99 6.02 4.99 4 6 C2.68 4.02 1.36 2.04 0 0 Z " fill="#645B84" transform="translate(64,112)"/>
<path d="M0 0 C0.99 0 1.98 0 3 0 C3 1.98 3 3.96 3 6 C2.01 6.33 1.02 6.66 0 7 C-1.5 5.625 -1.5 5.625 -3 4 C-3 3.34 -3 2.68 -3 2 C-2.01 2 -1.02 2 0 2 C0 1.34 0 0.68 0 0 Z " fill="#373552" transform="translate(91,99)"/>
<path d="M0 0 C1.5 1.375 1.5 1.375 3 3 C3 3.66 3 4.32 3 5 C2.34 5 1.68 5 1 5 C1 6.98 1 8.96 1 11 C0.34 11 -0.32 11 -1 11 C-1.02688151 9.35425434 -1.04634123 7.70838587 -1.0625 6.0625 C-1.07410156 5.14597656 -1.08570312 4.22945313 -1.09765625 3.28515625 C-1 1 -1 1 0 0 Z " fill="#544F83" transform="translate(103,90)"/>
<path d="M0 0 C2.97 0.495 2.97 0.495 6 1 C4.1875 3.5 4.1875 3.5 2 6 C1.01 6 0.02 6 -1 6 C-0.67 4.02 -0.34 2.04 0 0 Z " fill="#7F7FCB" transform="translate(81,28)"/>
<path d="M0 0 C1.32 0 2.64 0 4 0 C4 1.65 4 3.3 4 5 C2.68 5 1.36 5 0 5 C0 3.35 0 1.7 0 0 Z " fill="#252237" transform="translate(174,177)"/>
<path d="M0 0 C1.98 0.495 1.98 0.495 4 1 C4 2.65 4 4.3 4 6 C2.68 5.67 1.36 5.34 0 5 C0.33 4.34 0.66 3.68 1 3 C0.34 2.67 -0.32 2.34 -1 2 C-0.67 1.34 -0.34 0.68 0 0 Z " fill="#1A192A" transform="translate(146,176)"/>
<path d="M0 0 C1 3 1 3 0 6 C-2 6 -2 6 -3.625 4.625 C-5 3 -5 3 -5 1 C-2 0 -2 0 0 0 Z " fill="#232138" transform="translate(126,137)"/>
<path d="M0 0 C0.66 0.33 1.32 0.66 2 1 C2.59355614 3.64860427 2.74209269 6.29197322 3 9 C2.34 9 1.68 9 1 9 C0.01 7.02 -0.98 5.04 -2 3 C-1.34 3 -0.68 3 0 3 C0 2.01 0 1.02 0 0 Z " fill="#15151E" transform="translate(65,129)"/>
<path d="M0 0 C0 0.66 0 1.32 0 2 C-3.44833324 4.05257931 -5.31661591 5.0632763 -9.375 4.6875 C-10.24125 4.460625 -11.1075 4.23375 -12 4 C-12 3.67 -12 3.34 -12 3 C-10.56445975 2.49440092 -9.1264798 1.9957251 -7.6875 1.5 C-6.88699219 1.2215625 -6.08648437 0.943125 -5.26171875 0.65625 C-3 0 -3 0 0 0 Z " fill="#423B5B" transform="translate(131,125)"/>
<path d="M0 0 C0 0.66 0 1.32 0 2 C-1.65 2.33 -3.3 2.66 -5 3 C-5 3.66 -5 4.32 -5 5 C-6.32 4.67 -7.64 4.34 -9 4 C-8.34 3.67 -7.68 3.34 -7 3 C-7 2.34 -7 1.68 -7 1 C-2.25 0 -2.25 0 0 0 Z " fill="#181725" transform="translate(61,125)"/>
<path d="M0 0 C0.66 0 1.32 0 2 0 C1.67 0.99 1.34 1.98 1 3 C0.67 2.01 0.34 1.02 0 0 Z M-2 3 C-1.34 3.33 -0.68 3.66 0 4 C-2.97 6.475 -2.97 6.475 -6 9 C-6.33 8.34 -6.66 7.68 -7 7 C-6.34 7 -5.68 7 -5 7 C-5 6.01 -5 5.02 -5 4 C-4.01 3.67 -3.02 3.34 -2 3 Z " fill="#141521" transform="translate(84,111)"/>
<path d="M0 0 C0.99 0.33 1.98 0.66 3 1 C2.2884375 1.804375 2.2884375 1.804375 1.5625 2.625 C-0.28186076 5.42842836 -0.62456847 7.69620258 -1 11 C-1.33 11 -1.66 11 -2 11 C-2.96891192 5.62694301 -2.96891192 5.62694301 -3 3 C-1.5625 1 -1.5625 1 0 0 Z " fill="#7A709F" transform="translate(75,103)"/>
<path d="M0 0 C1.67542976 0.28604898 3.34385343 0.61781233 5 1 C5 1.66 5 2.32 5 3 C2.69 3.66 0.38 4.32 -2 5 C-1.125 1.125 -1.125 1.125 0 0 Z " fill="#262333" transform="translate(104,128)"/>
<path d="M0 0 C0.66 0 1.32 0 2 0 C2 1.32 2 2.64 2 4 C2.99 4 3.98 4 5 4 C5 4.66 5 5.32 5 6 C3.35 5.67 1.7 5.34 0 5 C-0.5625 3.0625 -0.5625 3.0625 -1 1 C-0.67 0.67 -0.34 0.34 0 0 Z " fill="#3F3951" transform="translate(76,124)"/>
<path d="M0 0 C1.32 0 2.64 0 4 0 C4.33 1.32 4.66 2.64 5 4 C3.35 3.67 1.7 3.34 0 3 C-0.33 3.66 -0.66 4.32 -1 5 C-0.67 3.35 -0.34 1.7 0 0 Z " fill="#2E2538" transform="translate(183,161)"/>
<path d="M0 0 C0.99 0 1.98 0 3 0 C3 2.64 3 5.28 3 8 C2.34 8 1.68 8 1 8 C0.67 5.36 0.34 2.72 0 0 Z " fill="#171423" transform="translate(141,160)"/>
<path d="M0 0 C2 3 2 3 2 5 C0.35 5.33 -1.3 5.66 -3 6 C-2.42655063 3.13275314 -2.1385485 2.1385485 0 0 Z " fill="#141621" transform="translate(56,136)"/>
<path d="M0 0 C1.32 0.33 2.64 0.66 4 1 C3.34 2.32 2.68 3.64 2 5 C0.68 4.67 -0.64 4.34 -2 4 C-1.34 2.68 -0.68 1.36 0 0 Z " fill="#2A2639" transform="translate(52,134)"/>
<path d="M0 0 C1.32 0.33 2.64 0.66 4 1 C2.37660195 2.70884005 0.70680947 4.37446717 -1 6 C-1.66 6 -2.32 6 -3 6 C-2.67 4.68 -2.34 3.36 -2 2 C-1.34 2 -0.68 2 0 2 C0 1.34 0 0.68 0 0 Z " fill="#8E82BC" transform="translate(173,126)"/>
<path d="M0 0 C2.475 0.495 2.475 0.495 5 1 C4.01 1.495 4.01 1.495 3 2 C3 3.32 3 4.64 3 6 C2.01 5.67 1.02 5.34 0 5 C0 3.35 0 1.7 0 0 Z " fill="#7C7097" transform="translate(0,119)"/>
<path d="M0 0 C2.475 0.99 2.475 0.99 5 2 C4.67 2.99 4.34 3.98 4 5 C2.35 4.67 0.7 4.34 -1 4 C-0.67 2.68 -0.34 1.36 0 0 Z " fill="#272539" transform="translate(108,117)"/>
<path d="M0 0 C0.99 0 1.98 0 3 0 C3 0.66 3 1.32 3 2 C3.99 2.33 4.98 2.66 6 3 C4.68 3 3.36 3 2 3 C1.67 3.99 1.34 4.98 1 6 C0.34 5.34 -0.32 4.68 -1 4 C-0.625 1.875 -0.625 1.875 0 0 Z " fill="#1F1E32" transform="translate(48,115)"/>
<path d="M0 0 C1.32 0.33 2.64 0.66 4 1 C4 2.32 4 3.64 4 5 C2.68 4.67 1.36 4.34 0 4 C0 2.68 0 1.36 0 0 Z " fill="#25233A" transform="translate(75,109)"/>
<path d="M0 0 C0.66 1.32 1.32 2.64 2 4 C0.68 4.33 -0.64 4.66 -2 5 C-2.33 6.32 -2.66 7.64 -3 9 C-2.25 2.25 -2.25 2.25 0 0 Z " fill="#565077" transform="translate(77,104)"/>
<path d="M0 0 C0.99 0.33 1.98 0.66 3 1 C3.33 2.65 3.66 4.3 4 6 C2.68 6 1.36 6 0 6 C0 4.02 0 2.04 0 0 Z " fill="#39375C" transform="translate(96,93)"/>
<path d="M0 0 C2.6875 0.3125 2.6875 0.3125 5 1 C4 3 4 3 0.9375 4.125 C-0.5165625 4.558125 -0.5165625 4.558125 -2 5 C-2.33 4.34 -2.66 3.68 -3 3 C-1.8125 1.4375 -1.8125 1.4375 0 0 Z " fill="#2E2C4C" transform="translate(88,90)"/>
<path d="M0 0 C-4.5 3 -4.5 3 -9 6 C-8.8125 4.1875 -8.8125 4.1875 -8 2 C-3.744 -1.248 -3.744 -1.248 0 0 Z " fill="#8887D1" transform="translate(111,6)"/>
<path d="M0 0 C2.64 0 5.28 0 8 0 C8.33 0.99 8.66 1.98 9 3 C3.46153846 3.36923077 3.46153846 3.36923077 1.125 1.5 C0.75375 1.005 0.3825 0.51 0 0 Z " fill="#615C98" transform="translate(146,114)"/>
<path d="M0 0 C0.33 1.98 0.66 3.96 1 6 C0.01 6 -0.98 6 -2 6 C-2 5.01 -2 4.02 -2 3 C-2.66 2.34 -3.32 1.68 -4 1 C-2 0 -2 0 0 0 Z " fill="#1A1A26" transform="translate(91,111)"/>
<path d="M0 0 C0.33 0 0.66 0 1 0 C1 2.31 1 4.62 1 7 C-0.32 6.34 -1.64 5.68 -3 5 C-2.03114628 3.31503702 -1.03013277 1.64821244 0 0 Z " fill="#9F83BF" transform="translate(191,88)"/>
</svg>
